<svg xmlns="http://www.w3.org/2000/svg" xmlns:xlink="http://www.w3.org/1999/xlink" width="1920" zoomAndPan="magnify" viewBox="0 0 1440 525.000007" height="700" preserveAspectRatio="xMidYMid meet" version="1.0"><defs><filter x="0%" y="0%" width="100%" height="100%" id="fd6b9b3c5e"><feColorMatrix values="0 0 0 0 1 0 0 0 0 1 0 0 0 0 1 0 0 0 1 0" color-interpolation-filters="sRGB"/></filter><mask id="e7c286d42e"><g filter="url(#fd6b9b3c5e)"><rect x="-144" width="1728" fill="#000000" y="-52.500001" height="630.000008" fill-opacity="0.098"/></g></mask><clipPath id="eee46030bb"><path d="M 1 0 L 521 0 L 521 518.011719 L 1 518.011719 Z M 1 0 " clip-rule="nonzero"/></clipPath><clipPath id="d131f9d0a9"><rect x="0" width="523" y="0" height="519"/></clipPath></defs><g mask="url(#e7c286d42e)"><g transform="matrix(1, 0, 0, 1, 507, 0.000000000000109615)"><g clip-path="url(#d131f9d0a9)"><g clip-path="url(#eee46030bb)"><path fill="#ffffff" d="M 417 134.96875 C 413.992188 133.765625 411.183594 132.359375 408.175781 131.15625 C 378.484375 118.324219 357.222656 99.871094 337.160156 69.589844 C 334.550781 65.78125 331.945312 61.367188 329.136719 56.957031 C 313.488281 31.6875 293.828125 0 261.53125 0.800781 C 223.417969 1.402344 200.546875 40.308594 178.28125 77.8125 C 164.640625 100.875 151.800781 122.535156 136.152344 135.167969 C 123.914062 144.996094 107.464844 153.820312 90.214844 163.246094 C 48.6875 185.707031 1.746094 211.175781 1.746094 258.503906 C 1.746094 301.421875 48.6875 329.898438 90.011719 354.96875 C 110.476562 367.402344 129.933594 379.035156 142.574219 391.667969 C 155.011719 404.101562 165.242188 422.152344 176.273438 441.40625 C 197.539062 479.105469 219.605469 518.011719 261.128906 518.011719 C 261.128906 518.011719 261.332031 518.011719 261.332031 518.011719 C 396.941406 517.410156 520.714844 393.675781 520.914062 258.503906 C 521.117188 179.890625 477.382812 161.039062 417 134.96875 Z M 261.332031 516.207031 C 261.332031 516.207031 261.128906 516.207031 261.128906 516.207031 C 220.808594 516.207031 198.941406 477.703125 177.878906 440.601562 C 167.046875 421.347656 156.613281 402.898438 143.976562 390.464844 C 131.136719 377.832031 111.679688 366 91.015625 353.566406 C 50.09375 328.496094 3.753906 300.417969 3.753906 258.503906 C 3.753906 212.378906 50.09375 187.3125 91.015625 165.050781 C 108.46875 155.625 124.917969 146.800781 137.15625 136.773438 C 153.203125 123.9375 166.042969 102.078125 179.886719 78.816406 C 201.75 41.714844 224.621094 3.410156 261.332031 2.605469 C 261.730469 2.605469 261.933594 2.605469 262.335938 2.605469 C 292.828125 2.605469 311.882812 33.289062 327.128906 57.957031 C 329.9375 62.371094 332.546875 66.78125 335.152344 70.59375 C 355.617188 101.277344 377.082031 119.925781 407.171875 132.960938 C 410.179688 134.167969 413.191406 135.570312 416 136.773438 C 475.777344 162.441406 519.109375 181.09375 518.910156 258.503906 C 518.707031 392.871094 395.9375 515.605469 261.332031 516.207031 Z M 261.332031 516.207031 " fill-opacity="1" fill-rule="nonzero"/></g><path fill="#ffffff" d="M 496.039062 257.101562 C 493.433594 197.941406 447.292969 174.074219 398.34375 148.804688 L 392.328125 145.597656 C 374.875 136.574219 357.222656 120.128906 340.167969 104.085938 C 314.492188 80.019531 287.8125 55.152344 259.925781 53.945312 C 228.632812 52.542969 199.34375 83.425781 173.265625 110.703125 C 160.828125 123.738281 148.992188 136.171875 137.757812 144.394531 C 127.125 152.214844 114.890625 159.234375 102.050781 166.453125 C 64.335938 187.914062 25.21875 210.171875 23.8125 256.902344 C 22.410156 298.011719 63.933594 325.488281 100.644531 349.753906 C 117.09375 360.582031 132.542969 371.011719 143.375 381.84375 C 154.207031 392.871094 164.039062 407.511719 174.269531 422.953125 C 196.9375 457.246094 220.207031 492.542969 260.128906 492.945312 C 260.730469 492.945312 261.332031 492.945312 261.933594 492.945312 C 320.511719 492.945312 381.09375 465.070312 428.234375 416.136719 C 473.574219 369.40625 498.449219 311.25 496.039062 257.101562 Z M 426.628906 414.933594 C 379.6875 463.464844 319.707031 491.140625 261.734375 491.140625 C 261.128906 491.140625 260.527344 491.140625 259.925781 491.140625 C 221.007812 490.738281 198.140625 455.84375 175.871094 422.152344 C 165.640625 406.507812 155.8125 391.667969 144.777344 380.636719 C 133.945312 369.808594 118.300781 359.378906 101.847656 348.351562 C 65.738281 324.285156 24.617188 297.011719 26.019531 257.101562 C 27.625 211.375 66.140625 189.515625 103.253906 168.257812 C 116.292969 160.839844 128.53125 153.820312 139.160156 146 C 150.597656 137.574219 162.433594 125.140625 174.871094 112.105469 C 199.945312 85.835938 228.433594 55.953125 258.121094 55.953125 C 258.722656 55.953125 259.324219 55.953125 259.925781 55.953125 C 287.210938 57.15625 313.488281 81.824219 338.964844 105.6875 C 356.015625 121.730469 373.671875 138.175781 391.523438 147.402344 L 397.542969 150.609375 C 445.890625 175.679688 491.628906 199.144531 494.234375 257.101562 C 496.441406 310.847656 471.765625 368.40625 426.628906 414.933594 Z M 426.628906 414.933594 " fill-opacity="1" fill-rule="nonzero"/><path fill="#ffffff" d="M 381.09375 158.433594 L 377.082031 156.027344 C 366.648438 150.007812 356.015625 142.589844 344.582031 134.96875 C 314.894531 114.714844 284.199219 93.855469 256.515625 92.851562 C 225.023438 91.851562 188.914062 117.121094 157.015625 139.378906 C 150.796875 143.589844 144.980469 147.804688 139.5625 151.414062 C 132.742188 156.027344 125.519531 160.4375 117.898438 165.050781 C 83.191406 186.109375 43.671875 209.972656 43.875 253.089844 C 44.074219 290.992188 79.382812 318.46875 110.476562 342.734375 C 122.710938 352.363281 134.347656 361.386719 143.777344 370.609375 C 152.402344 379.433594 161.027344 390.265625 169.855469 401.898438 C 192.722656 431.777344 218.800781 465.671875 255.914062 465.671875 C 256.117188 465.671875 256.515625 465.671875 256.71875 465.671875 C 311.882812 464.867188 373.269531 434.585938 416.800781 386.253906 C 454.113281 344.941406 473.171875 296.410156 469.359375 252.890625 C 464.746094 207.164062 420.410156 181.292969 381.09375 158.433594 Z M 414.996094 385.050781 C 371.863281 432.78125 311.082031 463.0625 256.316406 463.664062 C 256.117188 463.664062 255.914062 463.664062 255.511719 463.664062 C 219.40625 463.664062 193.726562 430.171875 171.058594 400.691406 C 162.03125 389.0625 153.605469 378.03125 144.777344 369.207031 C 135.351562 359.78125 123.714844 350.757812 111.476562 341.128906 C 79.179688 316.0625 45.878906 289.992188 45.679688 253.089844 C 45.480469 210.976562 84.398438 187.511719 118.699219 166.65625 C 126.324219 162.042969 133.746094 157.628906 140.566406 153.015625 C 146.183594 149.207031 152 145.195312 158.019531 140.984375 C 187.507812 120.328125 224.019531 94.859375 254.511719 94.859375 C 255.113281 94.859375 255.714844 94.859375 256.316406 94.859375 C 283.398438 95.863281 313.890625 116.519531 343.378906 136.574219 C 354.8125 144.394531 365.644531 151.613281 376.078125 157.832031 L 380.089844 160.238281 C 419.007812 182.898438 462.941406 208.570312 466.953125 253.292969 C 470.765625 296.207031 451.90625 344.140625 414.996094 385.050781 Z M 414.996094 385.050781 " fill-opacity="1" fill-rule="nonzero"/><path fill="#ffffff" d="M 361.03125 163.042969 C 314.691406 134.367188 277.582031 120.128906 250.898438 120.128906 C 216.796875 120.328125 129.53125 155.824219 86.402344 199.542969 C 69.953125 216.191406 61.527344 232.433594 61.726562 247.675781 C 62.128906 285.179688 93.625 312.855469 121.507812 337.121094 C 129.53125 344.140625 137.15625 350.757812 143.777344 357.574219 C 150.394531 364.195312 156.613281 371.414062 163.433594 379.035156 C 187.308594 405.90625 214.1875 436.390625 250.898438 436.792969 C 251.300781 436.792969 251.703125 436.792969 252.304688 436.792969 C 300.046875 436.792969 354.011719 409.917969 393.128906 366.601562 C 427.234375 328.695312 444.484375 285.378906 440.070312 247.675781 C 435.65625 208.96875 392.527344 182.296875 361.03125 163.042969 Z M 391.523438 364.996094 C 352.808594 407.914062 299.445312 434.585938 252.304688 434.585938 C 251.902344 434.585938 251.5 434.585938 250.898438 434.585938 C 215.191406 434.183594 189.714844 405.304688 165.039062 377.628906 C 158.21875 370.007812 151.800781 362.789062 145.179688 356.171875 C 138.359375 349.351562 130.738281 342.734375 122.710938 335.714844 C 95.230469 311.648438 64.136719 284.175781 63.734375 247.675781 C 63.535156 233.035156 71.757812 217.394531 87.808594 200.949219 C 129.734375 158.433594 217.800781 122.332031 250.898438 122.132812 C 251.101562 122.132812 251.101562 122.132812 251.300781 122.132812 C 277.582031 122.132812 314.292969 136.574219 360.230469 164.851562 C 391.324219 184.101562 433.851562 210.375 438.265625 247.875 C 442.277344 284.777344 425.425781 327.695312 391.523438 364.996094 Z M 391.523438 364.996094 " fill-opacity="1" fill-rule="nonzero"/><path fill="#ffffff" d="M 341.375 169.863281 C 306.867188 150.8125 266.949219 137.574219 244.28125 137.574219 C 212.582031 137.574219 137.15625 156.828125 99.644531 194.730469 C 85.601562 208.96875 78.578125 224.414062 78.578125 240.457031 C 78.980469 277.957031 108.46875 306.4375 134.347656 331.703125 C 137.957031 335.113281 141.367188 338.523438 144.777344 341.933594 C 147.988281 345.140625 150.996094 348.351562 154.207031 351.558594 C 179.082031 377.027344 207.167969 405.707031 244.078125 406.109375 C 244.480469 406.109375 244.679688 406.109375 245.082031 406.109375 C 288.414062 406.109375 334.953125 383.246094 369.457031 344.941406 C 398.945312 312.050781 413.589844 273.949219 409.78125 240.457031 C 407.371094 217.996094 382.296875 192.324219 341.375 169.863281 Z M 368.054688 343.539062 C 334.351562 381.039062 287.410156 404.101562 245.28125 404.101562 C 245.082031 404.101562 244.679688 404.101562 244.480469 404.101562 C 208.371094 403.902344 180.488281 375.425781 156.011719 350.15625 C 152.804688 346.945312 149.59375 343.539062 146.585938 340.527344 C 143.175781 337.121094 139.765625 333.710938 136.152344 330.300781 C 110.476562 305.433594 81.386719 276.957031 80.984375 240.457031 C 80.785156 225.015625 87.605469 209.972656 101.449219 196.136719 C 138.160156 159.035156 214.1875 139.582031 244.679688 139.582031 C 290.019531 139.582031 402.558594 192.324219 408.175781 240.65625 C 411.785156 273.546875 397.140625 311.046875 368.054688 343.539062 Z M 368.054688 343.539062 " fill-opacity="1" fill-rule="nonzero"/><path fill="#ffffff" d="M 237.859375 148.003906 C 237.660156 148.003906 237.257812 148.003906 237.058594 148.003906 C 209.976562 148.40625 143.976562 159.636719 112.082031 192.324219 C 100.445312 204.15625 94.828125 217.792969 95.027344 232.632812 C 95.429688 258.90625 114.488281 294.203125 144.777344 324.6875 C 175.671875 355.570312 210.175781 374.421875 237.058594 374.824219 C 237.460938 374.824219 238.0625 374.824219 238.664062 374.824219 C 275.574219 374.824219 314.691406 356.171875 343.378906 324.886719 C 369.257812 296.609375 382.296875 262.917969 379.289062 232.632812 C 373.871094 183.097656 277.980469 148.003906 237.859375 148.003906 Z M 341.574219 323.484375 C 313.289062 354.367188 274.773438 372.816406 238.460938 372.816406 C 238.0625 372.816406 237.460938 372.816406 237.058594 372.816406 C 211.179688 372.417969 176.273438 353.566406 146.183594 323.28125 C 116.292969 293.199219 97.234375 258.503906 96.835938 232.632812 C 96.632812 218.394531 102.25 205.359375 113.285156 193.730469 C 125.519531 181.09375 142.972656 171.667969 161.429688 164.851562 C 148.589844 169.664062 136.753906 176.28125 127.328125 185.304688 C 116.09375 196.335938 110.476562 209.371094 110.675781 224.414062 C 110.875 250.882812 127.125 282.773438 153.203125 307.839844 C 176.476562 330.300781 203.355469 342.9375 227.226562 342.9375 C 227.828125 342.9375 228.632812 342.9375 229.234375 342.9375 C 262.535156 341.933594 296.4375 325.890625 319.707031 300.019531 C 339.769531 277.957031 349.597656 251.085938 347.792969 224.414062 C 344.179688 173.675781 266.347656 154.824219 229.234375 153.621094 C 214.789062 153.417969 189.515625 155.425781 165.84375 163.445312 C 193.125 154.019531 221.410156 150.210938 236.855469 150.007812 C 258.320312 149.808594 292.625 159.433594 320.308594 173.472656 C 340.167969 183.5 374.070312 204.558594 376.878906 232.835938 C 380.089844 262.515625 367.050781 295.605469 341.574219 323.484375 Z M 128.730469 186.910156 C 154.207031 162.042969 200.949219 155.824219 225.222656 155.824219 C 226.625 155.824219 227.828125 155.824219 229.234375 155.824219 C 246.285156 156.425781 274.972656 161.039062 300.046875 172.269531 C 319.90625 181.292969 343.980469 197.738281 345.988281 224.613281 C 347.792969 250.683594 338.164062 276.957031 318.503906 298.816406 C 295.433594 324.285156 262.132812 340.128906 229.433594 341.128906 C 205.5625 341.933594 178.480469 329.296875 154.808594 306.636719 C 129.132812 281.96875 113.082031 250.484375 112.882812 224.613281 C 112.683594 210.171875 118.097656 197.539062 128.730469 186.910156 Z M 162.632812 164.648438 C 163.433594 164.449219 164.238281 164.046875 164.839844 163.847656 C 164.039062 164.046875 163.433594 164.449219 162.632812 164.648438 Z M 162.632812 164.648438 " fill-opacity="1" fill-rule="nonzero"/><path fill="#ffffff" d="M 221.410156 311.851562 C 221.609375 311.851562 221.8125 311.851562 222.011719 311.851562 C 248.089844 311.648438 273.769531 300.21875 292.222656 280.566406 C 309.277344 262.515625 318.101562 239.855469 316.898438 216.792969 C 315.894531 197.539062 303.457031 181.496094 280.992188 170.664062 C 264.140625 162.644531 242.074219 157.628906 221.8125 157.429688 C 194.730469 157.230469 159.222656 163.445312 140.367188 182.296875 C 131.136719 191.523438 126.523438 203.152344 126.722656 216.792969 C 127.527344 264.121094 175.070312 311.851562 221.410156 311.851562 Z M 141.96875 183.902344 C 159.824219 165.851562 193.726562 159.433594 220.007812 159.433594 C 220.609375 159.433594 221.210938 159.433594 221.8125 159.433594 C 256.71875 159.835938 312.886719 175.878906 314.894531 216.792969 C 316.097656 239.253906 307.46875 261.3125 290.621094 278.960938 C 272.363281 298.214844 247.289062 309.445312 221.8125 309.644531 C 221.609375 309.644531 221.410156 309.644531 221.210938 309.644531 C 176.074219 309.644531 129.332031 262.917969 128.730469 216.589844 C 128.730469 203.757812 133.144531 192.726562 141.96875 183.902344 Z M 141.96875 183.902344 " fill-opacity="1" fill-rule="nonzero"/><path fill="#ffffff" d="M 215.390625 281.367188 C 215.59375 281.367188 215.792969 281.367188 215.996094 281.367188 C 234.046875 281.367188 252.503906 273.347656 266.144531 259.308594 C 279.785156 245.46875 287.210938 227.421875 286.808594 209.773438 C 286.40625 193.929688 277.582031 180.691406 260.929688 171.867188 C 248.292969 165.050781 231.242188 161.039062 215.390625 161.039062 C 215.390625 161.039062 215.390625 161.039062 215.191406 161.039062 C 195.332031 161.039062 169.050781 167.65625 154.609375 182.296875 C 147.1875 189.917969 143.375 199.144531 143.574219 209.570312 C 144.578125 245.671875 179.886719 281.167969 215.390625 281.367188 Z M 156.214844 183.902344 C 170.257812 169.664062 195.933594 163.246094 215.390625 163.246094 C 215.390625 163.246094 215.390625 163.246094 215.59375 163.246094 C 242.074219 163.246094 284.199219 175.878906 285.003906 209.972656 C 285.402344 227.21875 277.980469 244.667969 264.941406 258.105469 C 251.300781 271.941406 233.246094 279.761719 215.59375 279.5625 C 181.890625 279.160156 146.785156 244.066406 145.984375 209.972656 C 145.582031 199.945312 149.191406 191.320312 156.214844 183.902344 Z M 156.214844 183.902344 " fill-opacity="1" fill-rule="nonzero"/><path fill="#ffffff" d="M 209.574219 252.289062 C 209.777344 252.289062 209.976562 252.289062 210.175781 252.289062 C 236.855469 252.085938 258.320312 230.429688 258.121094 204.359375 C 258.121094 192.726562 252.304688 183.097656 241.871094 176.480469 C 233.246094 171.066406 221.8125 167.859375 210.175781 167.859375 C 198.140625 167.65625 181.691406 171.066406 171.460938 181.496094 C 165.242188 187.710938 162.03125 195.535156 162.230469 204.558594 C 162.433594 217.394531 167.449219 229.425781 176.476562 238.449219 C 185.101562 247.273438 196.9375 252.289062 209.574219 252.289062 Z M 172.664062 182.699219 C 182.292969 173.070312 197.738281 169.664062 209.171875 169.664062 C 209.375 169.664062 209.777344 169.664062 209.976562 169.664062 C 241.472656 170.0625 255.914062 187.914062 255.914062 204.15625 C 256.117188 229.226562 235.453125 249.882812 209.976562 250.082031 C 197.738281 250.28125 186.304688 245.46875 177.679688 236.644531 C 169.050781 227.820312 164.238281 216.390625 164.039062 204.15625 C 163.835938 195.734375 166.847656 188.515625 172.664062 182.699219 Z M 172.664062 182.699219 " fill-opacity="1" fill-rule="nonzero"/><path fill="#ffffff" d="M 206.164062 225.015625 C 206.164062 225.015625 206.363281 225.015625 206.363281 225.015625 C 212.984375 225.015625 219.40625 222.207031 224.019531 217.394531 C 228.433594 212.78125 230.839844 206.765625 230.839844 200.347656 C 230.636719 187.511719 221.007812 179.089844 206.363281 179.089844 C 191.722656 178.886719 182.09375 187.3125 181.890625 200.347656 C 181.890625 206.964844 184.296875 213.183594 188.914062 217.792969 C 193.527344 222.40625 199.542969 225.015625 206.164062 225.015625 Z M 206.164062 181.09375 C 206.363281 181.09375 206.363281 181.09375 206.566406 181.09375 C 220.207031 181.292969 228.832031 188.714844 229.035156 200.347656 C 229.035156 206.164062 226.828125 211.777344 222.816406 215.988281 C 218.601562 220.402344 212.582031 222.808594 206.566406 222.808594 C 200.546875 222.808594 194.730469 220.601562 190.515625 216.191406 C 186.304688 211.976562 184.097656 206.363281 184.097656 200.347656 C 184.097656 188.714844 192.722656 181.09375 206.164062 181.09375 Z M 206.164062 181.09375 " fill-opacity="1" fill-rule="nonzero"/></g></g></g></svg>