<svg xmlns="http://www.w3.org/2000/svg" xmlns:xlink="http://www.w3.org/1999/xlink" width="1920" zoomAndPan="magnify" viewBox="0 0 1440 525.000007" height="700" preserveAspectRatio="xMidYMid meet" version="1.0"><defs><filter x="0%" y="0%" width="100%" height="100%" id="793bcad920"><feColorMatrix values="0 0 0 0 1 0 0 0 0 1 0 0 0 0 1 0 0 0 1 0" color-interpolation-filters="sRGB"/></filter><clipPath id="6161e94678"><path d="M 1.367188 0 L 1438.628906 0 L 1438.628906 524 L 1.367188 524 Z M 1.367188 0 " clip-rule="nonzero"/></clipPath><mask id="b3a37068d4"><g filter="url(#793bcad920)"><rect x="-144" width="1728" fill="#000000" y="-52.500001" height="630.000008" fill-opacity="0.098"/></g></mask><clipPath id="72afb0a6af"><path d="M 0.367188 142 L 30 142 L 30 220 L 0.367188 220 Z M 0.367188 142 " clip-rule="nonzero"/></clipPath><clipPath id="1d01423dac"><path d="M 0.367188 28 L 30 28 L 30 68 L 0.367188 68 Z M 0.367188 28 " clip-rule="nonzero"/></clipPath><clipPath id="af2f66dfdd"><path d="M 0.367188 294 L 30 294 L 30 334 L 0.367188 334 Z M 0.367188 294 " clip-rule="nonzero"/></clipPath><clipPath id="bf46ba35e7"><path d="M 0.367188 408 L 30 408 L 30 448 L 0.367188 448 Z M 0.367188 408 " clip-rule="nonzero"/></clipPath><clipPath id="62e59db32e"><path d="M 484 446.148438 L 523.628906 446.148438 L 523.628906 523.890625 L 484 523.890625 Z M 484 446.148438 " clip-rule="nonzero"/></clipPath><clipPath id="ee7d0b8111"><path d="M 484 180 L 523.628906 180 L 523.628906 220 L 484 220 Z M 484 180 " clip-rule="nonzero"/></clipPath><clipPath id="f55d6a7465"><path d="M 541.855469 104 L 582 104 L 582 144 L 541.855469 144 Z M 541.855469 104 " clip-rule="nonzero"/></clipPath><clipPath id="3b8d2ec7ff"><path d="M 541.855469 256 L 582 256 L 582 296 L 541.855469 296 Z M 541.855469 256 " clip-rule="nonzero"/></clipPath><clipPath id="88e4048472"><path d="M 541.855469 484 L 581.886719 484 L 581.886719 523.890625 L 541.855469 523.890625 Z M 541.855469 484 " clip-rule="nonzero"/></clipPath><clipPath id="1618f6cf4f"><path d="M 1074 446.148438 L 1113.765625 446.148438 L 1113.765625 523.890625 L 1074 523.890625 Z M 1074 446.148438 " clip-rule="nonzero"/></clipPath><clipPath id="1a445b12a2"><path d="M 1074 180 L 1113.765625 180 L 1113.765625 220 L 1074 220 Z M 1074 180 " clip-rule="nonzero"/></clipPath><clipPath id="b6d068d57e"><path d="M 1131.71875 104 L 1172 104 L 1172 144 L 1131.71875 144 Z M 1131.71875 104 " clip-rule="nonzero"/></clipPath><clipPath id="e244d11547"><path d="M 1359 256 L 1437.628906 256 L 1437.628906 296 L 1359 296 Z M 1359 256 " clip-rule="nonzero"/></clipPath><clipPath id="886089e29c"><path d="M 1131.71875 256 L 1172 256 L 1172 296 L 1131.71875 296 Z M 1131.71875 256 " clip-rule="nonzero"/></clipPath><clipPath id="c66dd3339c"><path d="M 1131.71875 484 L 1171.75 484 L 1171.75 523.890625 L 1131.71875 523.890625 Z M 1131.71875 484 " clip-rule="nonzero"/></clipPath><clipPath id="0fe3874519"><path d="M 1436 294 L 1437.628906 294 L 1437.628906 334 L 1436 334 Z M 1436 294 " clip-rule="nonzero"/></clipPath><clipPath id="cc1bd41559"><path d="M 1398 332 L 1437.628906 332 L 1437.628906 372 L 1398 372 Z M 1398 332 " clip-rule="nonzero"/></clipPath><clipPath id="b302621233"><rect x="0" width="1438" y="0" height="524"/></clipPath></defs><g clip-path="url(#6161e94678)"><path fill="#ffffff" d="M 1.367188 0 L 1438.632812 0 L 1438.632812 531.488281 L 1.367188 531.488281 Z M 1.367188 0 " fill-opacity="1" fill-rule="nonzero"/><path fill="#ffffff" d="M 1.367188 0 L 1438.632812 0 L 1438.632812 524 L 1.367188 524 Z M 1.367188 0 " fill-opacity="1" fill-rule="nonzero"/><path fill="#000000" d="M 1.367188 0 L 1438.632812 0 L 1438.632812 524 L 1.367188 524 Z M 1.367188 0 " fill-opacity="1" fill-rule="nonzero"/><g mask="url(#b3a37068d4)"><g transform="matrix(1, 0, 0, 1, 1, 0.000000000000109615)"><g clip-path="url(#b302621233)"><path fill="#ffffff" d="M 27.804688 256.96875 L 27.804688 218.296875 L 105.160156 218.296875 L 105.160156 257.605469 L 27.804688 257.605469 Z M 29.074219 219.566406 L 29.074219 256.339844 L 103.886719 256.339844 L 103.886719 219.566406 L 29.074219 219.566406 " fill-opacity="1" fill-rule="evenodd"/><g clip-path="url(#72afb0a6af)"><path fill="#ffffff" d="M -9.601562 142.214844 L 29.074219 142.214844 L 29.074219 219.566406 L -10.238281 219.566406 L -10.238281 142.214844 Z M 27.804688 143.480469 L -8.96875 143.480469 L -8.96875 218.296875 L 27.804688 218.296875 L 27.804688 143.480469 " fill-opacity="1" fill-rule="evenodd"/></g><g clip-path="url(#1d01423dac)"><path fill="#ffffff" d="M -9.601562 28.089844 L 29.074219 28.089844 L 29.074219 67.398438 L -10.238281 67.398438 L -10.238281 28.089844 Z M 27.804688 29.355469 L -8.96875 29.355469 L -8.96875 66.128906 L 27.804688 66.128906 L 27.804688 29.355469 " fill-opacity="1" fill-rule="evenodd"/></g><path fill="#ffffff" d="M 28.441406 66.128906 L 67.117188 66.128906 L 67.117188 143.480469 L 27.804688 143.480469 L 27.804688 66.128906 Z M 65.847656 67.398438 L 29.074219 67.398438 L 29.074219 142.214844 L 65.847656 142.214844 L 65.847656 67.398438 " fill-opacity="1" fill-rule="evenodd"/><path fill="#ffffff" d="M 104.527344 104.171875 L 143.203125 104.171875 L 143.203125 143.480469 L 103.886719 143.480469 L 103.886719 104.171875 Z M 141.933594 105.4375 L 105.160156 105.4375 L 105.160156 142.214844 L 141.933594 142.214844 L 141.933594 105.4375 " fill-opacity="1" fill-rule="evenodd"/><path fill="#ffffff" d="M 104.527344 180.253906 L 143.203125 180.253906 L 143.203125 219.566406 L 103.886719 219.566406 L 103.886719 180.253906 Z M 141.933594 181.519531 L 105.160156 181.519531 L 105.160156 218.296875 L 141.933594 218.296875 L 141.933594 181.519531 " fill-opacity="1" fill-rule="evenodd"/><path fill="#ffffff" d="M 142.566406 218.296875 L 181.242188 218.296875 L 181.242188 257.605469 L 141.933594 257.605469 L 141.933594 218.296875 Z M 179.980469 219.566406 L 143.203125 219.566406 L 143.203125 256.339844 L 179.980469 256.339844 L 179.980469 219.566406 " fill-opacity="1" fill-rule="evenodd"/><path fill="#ffffff" d="M 180.609375 142.214844 L 219.289062 142.214844 L 219.289062 219.566406 L 179.980469 219.566406 L 179.980469 142.214844 Z M 218.019531 143.480469 L 181.242188 143.480469 L 181.242188 218.296875 L 218.019531 218.296875 L 218.019531 143.480469 " fill-opacity="1" fill-rule="evenodd"/><path fill="#ffffff" d="M 179.980469 295.015625 L 179.980469 256.339844 L 257.335938 256.339844 L 257.335938 295.644531 L 179.980469 295.644531 Z M 181.242188 257.605469 L 181.242188 294.378906 L 256.0625 294.378906 L 256.0625 257.605469 L 181.242188 257.605469 " fill-opacity="1" fill-rule="evenodd"/><g clip-path="url(#af2f66dfdd)"><path fill="#ffffff" d="M -9.601562 294.378906 L 29.074219 294.378906 L 29.074219 333.683594 L -10.238281 333.683594 L -10.238281 294.378906 Z M 27.804688 295.644531 L -8.96875 295.644531 L -8.96875 332.417969 L 27.804688 332.417969 L 27.804688 295.644531 " fill-opacity="1" fill-rule="evenodd"/></g><path fill="#ffffff" d="M 28.441406 332.417969 L 67.117188 332.417969 L 67.117188 409.769531 L 27.804688 409.769531 L 27.804688 332.417969 Z M 65.847656 333.683594 L 29.074219 333.683594 L 29.074219 408.503906 L 65.847656 408.503906 L 65.847656 333.683594 " fill-opacity="1" fill-rule="evenodd"/><path fill="#ffffff" d="M 65.847656 333.050781 L 65.847656 294.378906 L 143.203125 294.378906 L 143.203125 333.683594 L 65.847656 333.683594 Z M 67.117188 295.644531 L 67.117188 332.417969 L 141.933594 332.417969 L 141.933594 295.644531 L 67.117188 295.644531 " fill-opacity="1" fill-rule="evenodd"/><path fill="#ffffff" d="M 142.566406 332.417969 L 181.242188 332.417969 L 181.242188 371.726562 L 141.933594 371.726562 L 141.933594 332.417969 Z M 179.980469 333.683594 L 143.203125 333.683594 L 143.203125 370.464844 L 179.980469 370.464844 L 179.980469 333.683594 " fill-opacity="1" fill-rule="evenodd"/><path fill="#ffffff" d="M 104.527344 370.464844 L 143.203125 370.464844 L 143.203125 447.804688 L 103.886719 447.804688 L 103.886719 370.464844 Z M 141.933594 371.726562 L 105.160156 371.726562 L 105.160156 446.546875 L 141.933594 446.546875 L 141.933594 371.726562 " fill-opacity="1" fill-rule="evenodd"/><path fill="#ffffff" d="M 180.609375 408.503906 L 219.289062 408.503906 L 219.289062 447.804688 L 179.980469 447.804688 L 179.980469 408.503906 Z M 218.019531 409.769531 L 181.242188 409.769531 L 181.242188 446.546875 L 218.019531 446.546875 L 218.019531 409.769531 " fill-opacity="1" fill-rule="evenodd"/><g clip-path="url(#bf46ba35e7)"><path fill="#ffffff" d="M -9.601562 408.503906 L 29.074219 408.503906 L 29.074219 447.804688 L -10.238281 447.804688 L -10.238281 408.503906 Z M 27.804688 409.769531 L -8.96875 409.769531 L -8.96875 446.546875 L 27.804688 446.546875 L 27.804688 409.769531 " fill-opacity="1" fill-rule="evenodd"/></g><path fill="#ffffff" d="M 28.441406 446.546875 L 67.117188 446.546875 L 67.117188 485.855469 L 27.804688 485.855469 L 27.804688 446.546875 Z M 65.847656 447.804688 L 29.074219 447.804688 L 29.074219 484.582031 L 65.847656 484.582031 L 65.847656 447.804688 " fill-opacity="1" fill-rule="evenodd"/><path fill="#ffffff" d="M 294.105469 409.132812 L 294.105469 370.464844 L 371.460938 370.464844 L 371.460938 409.769531 L 294.105469 409.769531 Z M 295.367188 371.726562 L 295.367188 408.503906 L 370.1875 408.503906 L 370.1875 371.726562 L 295.367188 371.726562 " fill-opacity="1" fill-rule="evenodd"/><path fill="#ffffff" d="M 332.78125 218.296875 L 371.460938 218.296875 L 371.460938 295.644531 L 332.148438 295.644531 L 332.148438 218.296875 Z M 370.1875 219.566406 L 333.410156 219.566406 L 333.410156 294.378906 L 370.1875 294.378906 L 370.1875 219.566406 " fill-opacity="1" fill-rule="evenodd"/><path fill="#ffffff" d="M 446.910156 408.503906 L 485.589844 408.503906 L 485.589844 447.804688 L 446.273438 447.804688 L 446.273438 408.503906 Z M 484.320312 409.769531 L 447.542969 409.769531 L 447.542969 446.546875 L 484.320312 446.546875 L 484.320312 409.769531 " fill-opacity="1" fill-rule="evenodd"/><path fill="#ffffff" d="M 370.824219 294.378906 L 409.503906 294.378906 L 409.503906 333.683594 L 370.1875 333.683594 L 370.1875 294.378906 Z M 408.230469 295.644531 L 371.460938 295.644531 L 371.460938 332.417969 L 408.230469 332.417969 L 408.230469 295.644531 " fill-opacity="1" fill-rule="evenodd"/><path fill="#ffffff" d="M 408.230469 371.097656 L 408.230469 332.417969 L 485.589844 332.417969 L 485.589844 371.726562 L 408.230469 371.726562 Z M 409.503906 333.683594 L 409.503906 370.464844 L 484.320312 370.464844 L 484.320312 333.683594 L 409.503906 333.683594 " fill-opacity="1" fill-rule="evenodd"/><path fill="#ffffff" d="M 370.824219 408.503906 L 409.503906 408.503906 L 409.503906 447.804688 L 370.1875 447.804688 L 370.1875 408.503906 Z M 408.230469 409.769531 L 371.460938 409.769531 L 371.460938 446.546875 L 408.230469 446.546875 L 408.230469 409.769531 " fill-opacity="1" fill-rule="evenodd"/><g clip-path="url(#62e59db32e)"><path fill="#ffffff" d="M 484.953125 446.546875 L 523.628906 446.546875 L 523.628906 523.890625 L 484.320312 523.890625 L 484.320312 446.546875 Z M 522.363281 447.804688 L 485.589844 447.804688 L 485.589844 522.625 L 522.363281 522.625 L 522.363281 447.804688 " fill-opacity="1" fill-rule="evenodd"/></g><path fill="#ffffff" d="M 408.867188 218.296875 L 447.542969 218.296875 L 447.542969 257.605469 L 408.230469 257.605469 L 408.230469 218.296875 Z M 446.273438 219.566406 L 409.503906 219.566406 L 409.503906 256.339844 L 446.273438 256.339844 L 446.273438 219.566406 " fill-opacity="1" fill-rule="evenodd"/><path fill="#ffffff" d="M 446.910156 256.339844 L 485.589844 256.339844 L 485.589844 295.644531 L 446.273438 295.644531 L 446.273438 256.339844 Z M 484.320312 257.605469 L 447.542969 257.605469 L 447.542969 294.378906 L 484.320312 294.378906 L 484.320312 257.605469 " fill-opacity="1" fill-rule="evenodd"/><g clip-path="url(#ee7d0b8111)"><path fill="#ffffff" d="M 484.953125 180.253906 L 523.628906 180.253906 L 523.628906 219.566406 L 484.320312 219.566406 L 484.320312 180.253906 Z M 522.363281 181.519531 L 485.589844 181.519531 L 485.589844 218.296875 L 522.363281 218.296875 L 522.363281 181.519531 " fill-opacity="1" fill-rule="evenodd"/></g><path fill="#ffffff" d="M 256.695312 294.378906 L 295.367188 294.378906 L 295.367188 333.683594 L 256.0625 333.683594 L 256.0625 294.378906 Z M 294.105469 295.644531 L 257.335938 295.644531 L 257.335938 332.417969 L 294.105469 332.417969 L 294.105469 295.644531 " fill-opacity="1" fill-rule="evenodd"/><path fill="#ffffff" d="M 218.648438 332.417969 L 257.335938 332.417969 L 257.335938 371.726562 L 218.019531 371.726562 L 218.019531 332.417969 Z M 256.0625 333.683594 L 219.289062 333.683594 L 219.289062 370.464844 L 256.0625 370.464844 L 256.0625 333.683594 " fill-opacity="1" fill-rule="evenodd"/><path fill="#ffffff" d="M 3.433594 459.578125 L 16.042969 459.578125 L 16.042969 472.816406 L 2.796875 472.816406 L 2.796875 459.578125 Z M 14.773438 460.84375 L 4.066406 460.84375 L 4.066406 471.546875 L 14.773438 471.546875 L 14.773438 460.84375 " fill-opacity="1" fill-rule="evenodd"/><path fill="#ffffff" d="M 40.023438 267.917969 L 55.535156 267.917969 L 55.535156 284.066406 L 39.386719 284.066406 L 39.386719 267.917969 Z M 54.265625 269.183594 L 40.65625 269.183594 L 40.65625 282.800781 L 54.265625 282.800781 L 54.265625 269.183594 " fill-opacity="1" fill-rule="evenodd"/><path fill="#ffffff" d="M 79.988281 345.917969 L 91.660156 345.917969 L 91.660156 358.230469 L 79.351562 358.230469 L 79.351562 345.917969 Z M 90.390625 347.191406 L 80.617188 347.191406 L 80.617188 356.957031 L 90.390625 356.957031 L 90.390625 347.191406 " fill-opacity="1" fill-rule="evenodd"/><path fill="#ffffff" d="M 76.996094 152.726562 L 94.644531 152.726562 L 94.644531 171.007812 L 76.363281 171.007812 L 76.363281 152.726562 Z M 93.375 153.996094 L 77.628906 153.996094 L 77.628906 169.738281 L 93.375 169.738281 L 93.375 153.996094 " fill-opacity="1" fill-rule="evenodd"/><path fill="#ffffff" d="M 155.914062 79.476562 L 167.898438 79.476562 L 167.898438 92.09375 L 155.28125 92.09375 L 155.28125 79.476562 Z M 166.628906 80.742188 L 156.546875 80.742188 L 156.546875 90.828125 L 166.628906 90.828125 L 166.628906 80.742188 " fill-opacity="1" fill-rule="evenodd"/><path fill="#ffffff" d="M 264.105469 225.703125 L 287.96875 225.703125 L 287.96875 250.195312 L 263.472656 250.195312 L 263.472656 225.703125 Z M 286.699219 226.96875 L 264.738281 226.96875 L 264.738281 248.933594 L 286.699219 248.933594 L 286.699219 226.96875 " fill-opacity="1" fill-rule="evenodd"/><path fill="#ffffff" d="M 232.367188 193.96875 L 243.617188 193.96875 L 243.617188 205.847656 L 231.734375 205.847656 L 231.734375 193.96875 Z M 242.347656 195.238281 L 233 195.238281 L 233 204.585938 L 242.347656 204.585938 L 242.347656 195.238281 " fill-opacity="1" fill-rule="evenodd"/><path fill="#ffffff" d="M 346.003906 345.640625 L 358.238281 345.640625 L 358.238281 358.507812 L 345.371094 358.507812 L 345.371094 345.640625 Z M 356.96875 346.910156 L 346.636719 346.910156 L 346.636719 357.238281 L 356.96875 357.238281 L 356.96875 346.910156 " fill-opacity="1" fill-rule="evenodd"/><path fill="#ffffff" d="M 385.519531 194.941406 L 394.808594 194.941406 L 394.808594 204.871094 L 384.882812 204.871094 L 384.882812 194.941406 Z M 393.542969 196.210938 L 386.152344 196.210938 L 386.152344 203.601562 L 393.542969 203.601562 L 393.542969 196.210938 " fill-opacity="1" fill-rule="evenodd"/><path fill="#ffffff" d="M 457.144531 152.449219 L 475.347656 152.449219 L 475.347656 171.289062 L 456.511719 171.289062 L 456.511719 152.449219 Z M 474.089844 153.71875 L 457.785156 153.71875 L 457.785156 170.019531 L 474.089844 170.019531 L 474.089844 153.71875 " fill-opacity="1" fill-rule="evenodd"/><path fill="#ffffff" d="M 495.253906 304.671875 L 513.332031 304.671875 L 513.332031 323.390625 L 494.621094 323.390625 L 494.621094 304.671875 Z M 512.0625 305.945312 L 495.882812 305.945312 L 495.882812 322.121094 L 512.0625 322.121094 L 512.0625 305.945312 " fill-opacity="1" fill-rule="evenodd"/><path fill="#ffffff" d="M 498.886719 232.226562 L 509.699219 232.226562 L 509.699219 243.667969 L 498.25 243.667969 L 498.25 232.226562 Z M 508.429688 233.496094 L 499.523438 233.496094 L 499.523438 242.40625 L 508.429688 242.40625 L 508.429688 233.496094 " fill-opacity="1" fill-rule="evenodd"/><path fill="#ffffff" d="M 498.722656 384.226562 L 509.867188 384.226562 L 509.867188 396.003906 L 498.082031 396.003906 L 498.082031 384.226562 Z M 508.59375 385.492188 L 499.355469 385.492188 L 499.355469 394.738281 L 508.59375 394.738281 L 508.59375 385.492188 " fill-opacity="1" fill-rule="evenodd"/><path fill="#ffffff" d="M 423.664062 271.128906 L 432.75 271.128906 L 432.75 280.847656 L 423.03125 280.847656 L 423.03125 271.128906 Z M 431.480469 272.398438 L 424.292969 272.398438 L 424.292969 279.582031 L 431.480469 279.582031 L 431.480469 272.398438 " fill-opacity="1" fill-rule="evenodd"/><path fill="#ffffff" d="M 418.402344 456.082031 L 438.007812 456.082031 L 438.007812 476.320312 L 417.765625 476.320312 L 417.765625 456.082031 Z M 436.738281 457.34375 L 419.035156 457.34375 L 419.035156 475.046875 L 436.738281 475.046875 L 436.738281 457.34375 " fill-opacity="1" fill-rule="evenodd"/><g clip-path="url(#f55d6a7465)"><path fill="#ffffff" d="M 542.484375 104.171875 L 581.164062 104.171875 L 581.164062 143.480469 L 541.855469 143.480469 L 541.855469 104.171875 Z M 579.894531 105.4375 L 543.121094 105.4375 L 543.121094 142.214844 L 579.894531 142.214844 L 579.894531 105.4375 " fill-opacity="1" fill-rule="evenodd"/></g><path fill="#ffffff" d="M 617.941406 256.96875 L 617.941406 218.296875 L 695.296875 218.296875 L 695.296875 257.605469 L 617.941406 257.605469 Z M 619.210938 219.566406 L 619.210938 256.339844 L 694.023438 256.339844 L 694.023438 219.566406 L 619.210938 219.566406 " fill-opacity="1" fill-rule="evenodd"/><path fill="#ffffff" d="M 580.535156 142.214844 L 619.210938 142.214844 L 619.210938 219.566406 L 579.894531 219.566406 L 579.894531 142.214844 Z M 617.941406 143.480469 L 581.164062 143.480469 L 581.164062 218.296875 L 617.941406 218.296875 L 617.941406 143.480469 " fill-opacity="1" fill-rule="evenodd"/><path fill="#ffffff" d="M 580.535156 28.089844 L 619.210938 28.089844 L 619.210938 67.398438 L 579.894531 67.398438 L 579.894531 28.089844 Z M 617.941406 29.355469 L 581.164062 29.355469 L 581.164062 66.128906 L 617.941406 66.128906 L 617.941406 29.355469 " fill-opacity="1" fill-rule="evenodd"/><path fill="#ffffff" d="M 618.574219 66.128906 L 657.25 66.128906 L 657.25 143.480469 L 617.941406 143.480469 L 617.941406 66.128906 Z M 655.980469 67.398438 L 619.210938 67.398438 L 619.210938 142.214844 L 655.980469 142.214844 L 655.980469 67.398438 " fill-opacity="1" fill-rule="evenodd"/><path fill="#ffffff" d="M 694.660156 104.171875 L 733.335938 104.171875 L 733.335938 143.480469 L 694.023438 143.480469 L 694.023438 104.171875 Z M 732.066406 105.4375 L 695.296875 105.4375 L 695.296875 142.214844 L 732.066406 142.214844 L 732.066406 105.4375 " fill-opacity="1" fill-rule="evenodd"/><path fill="#ffffff" d="M 694.660156 180.253906 L 733.335938 180.253906 L 733.335938 219.566406 L 694.023438 219.566406 L 694.023438 180.253906 Z M 732.066406 181.519531 L 695.296875 181.519531 L 695.296875 218.296875 L 732.066406 218.296875 L 732.066406 181.519531 " fill-opacity="1" fill-rule="evenodd"/><path fill="#ffffff" d="M 732.703125 218.296875 L 771.378906 218.296875 L 771.378906 257.605469 L 732.066406 257.605469 L 732.066406 218.296875 Z M 770.113281 219.566406 L 733.335938 219.566406 L 733.335938 256.339844 L 770.113281 256.339844 L 770.113281 219.566406 " fill-opacity="1" fill-rule="evenodd"/><path fill="#ffffff" d="M 770.742188 142.214844 L 809.421875 142.214844 L 809.421875 219.566406 L 770.113281 219.566406 L 770.113281 142.214844 Z M 808.15625 143.480469 L 771.378906 143.480469 L 771.378906 218.296875 L 808.15625 218.296875 L 808.15625 143.480469 " fill-opacity="1" fill-rule="evenodd"/><path fill="#ffffff" d="M 770.113281 295.015625 L 770.113281 256.339844 L 847.46875 256.339844 L 847.46875 295.644531 L 770.113281 295.644531 Z M 771.378906 257.605469 L 771.378906 294.378906 L 846.195312 294.378906 L 846.195312 257.605469 L 771.378906 257.605469 " fill-opacity="1" fill-rule="evenodd"/><g clip-path="url(#3b8d2ec7ff)"><path fill="#ffffff" d="M 542.484375 256.339844 L 581.164062 256.339844 L 581.164062 295.644531 L 541.855469 295.644531 L 541.855469 256.339844 Z M 579.894531 257.605469 L 543.121094 257.605469 L 543.121094 294.378906 L 579.894531 294.378906 L 579.894531 257.605469 " fill-opacity="1" fill-rule="evenodd"/></g><path fill="#ffffff" d="M 580.535156 294.378906 L 619.210938 294.378906 L 619.210938 333.683594 L 579.894531 333.683594 L 579.894531 294.378906 Z M 617.941406 295.644531 L 581.164062 295.644531 L 581.164062 332.417969 L 617.941406 332.417969 L 617.941406 295.644531 " fill-opacity="1" fill-rule="evenodd"/><path fill="#ffffff" d="M 618.574219 332.417969 L 657.25 332.417969 L 657.25 409.769531 L 617.941406 409.769531 L 617.941406 332.417969 Z M 655.980469 333.683594 L 619.210938 333.683594 L 619.210938 408.503906 L 655.980469 408.503906 L 655.980469 333.683594 " fill-opacity="1" fill-rule="evenodd"/><path fill="#ffffff" d="M 655.980469 333.050781 L 655.980469 294.378906 L 733.335938 294.378906 L 733.335938 333.683594 L 655.980469 333.683594 Z M 657.25 295.644531 L 657.25 332.417969 L 732.066406 332.417969 L 732.066406 295.644531 L 657.25 295.644531 " fill-opacity="1" fill-rule="evenodd"/><path fill="#ffffff" d="M 732.703125 332.417969 L 771.378906 332.417969 L 771.378906 371.726562 L 732.066406 371.726562 L 732.066406 332.417969 Z M 770.113281 333.683594 L 733.335938 333.683594 L 733.335938 370.464844 L 770.113281 370.464844 L 770.113281 333.683594 " fill-opacity="1" fill-rule="evenodd"/><path fill="#ffffff" d="M 694.660156 370.464844 L 733.335938 370.464844 L 733.335938 447.804688 L 694.023438 447.804688 L 694.023438 370.464844 Z M 732.066406 371.726562 L 695.296875 371.726562 L 695.296875 446.546875 L 732.066406 446.546875 L 732.066406 371.726562 " fill-opacity="1" fill-rule="evenodd"/><path fill="#ffffff" d="M 770.742188 408.503906 L 809.421875 408.503906 L 809.421875 447.804688 L 770.113281 447.804688 L 770.113281 408.503906 Z M 808.15625 409.769531 L 771.378906 409.769531 L 771.378906 446.546875 L 808.15625 446.546875 L 808.15625 409.769531 " fill-opacity="1" fill-rule="evenodd"/><path fill="#ffffff" d="M 580.535156 408.503906 L 619.210938 408.503906 L 619.210938 447.804688 L 579.894531 447.804688 L 579.894531 408.503906 Z M 617.941406 409.769531 L 581.164062 409.769531 L 581.164062 446.546875 L 617.941406 446.546875 L 617.941406 409.769531 " fill-opacity="1" fill-rule="evenodd"/><path fill="#ffffff" d="M 618.574219 446.546875 L 657.25 446.546875 L 657.25 485.855469 L 617.941406 485.855469 L 617.941406 446.546875 Z M 655.980469 447.804688 L 619.210938 447.804688 L 619.210938 484.582031 L 655.980469 484.582031 L 655.980469 447.804688 " fill-opacity="1" fill-rule="evenodd"/><g clip-path="url(#88e4048472)"><path fill="#ffffff" d="M 542.484375 484.582031 L 581.164062 484.582031 L 581.164062 523.890625 L 541.855469 523.890625 L 541.855469 484.582031 Z M 579.894531 485.855469 L 543.121094 485.855469 L 543.121094 522.625 L 579.894531 522.625 L 579.894531 485.855469 " fill-opacity="1" fill-rule="evenodd"/></g><path fill="#ffffff" d="M 884.242188 409.132812 L 884.242188 370.464844 L 961.597656 370.464844 L 961.597656 409.769531 L 884.242188 409.769531 Z M 885.5 371.726562 L 885.5 408.503906 L 960.324219 408.503906 L 960.324219 371.726562 L 885.5 371.726562 " fill-opacity="1" fill-rule="evenodd"/><path fill="#ffffff" d="M 922.917969 218.296875 L 961.597656 218.296875 L 961.597656 295.644531 L 922.28125 295.644531 L 922.28125 218.296875 Z M 960.324219 219.566406 L 923.546875 219.566406 L 923.546875 294.378906 L 960.324219 294.378906 L 960.324219 219.566406 " fill-opacity="1" fill-rule="evenodd"/><path fill="#ffffff" d="M 1037.042969 408.503906 L 1075.722656 408.503906 L 1075.722656 447.804688 L 1036.410156 447.804688 L 1036.410156 408.503906 Z M 1074.453125 409.769531 L 1037.679688 409.769531 L 1037.679688 446.546875 L 1074.453125 446.546875 L 1074.453125 409.769531 " fill-opacity="1" fill-rule="evenodd"/><path fill="#ffffff" d="M 960.957031 294.378906 L 999.636719 294.378906 L 999.636719 333.683594 L 960.324219 333.683594 L 960.324219 294.378906 Z M 998.363281 295.644531 L 961.597656 295.644531 L 961.597656 332.417969 L 998.363281 332.417969 L 998.363281 295.644531 " fill-opacity="1" fill-rule="evenodd"/><path fill="#ffffff" d="M 998.363281 371.097656 L 998.363281 332.417969 L 1075.722656 332.417969 L 1075.722656 371.726562 L 998.363281 371.726562 Z M 999.636719 333.683594 L 999.636719 370.464844 L 1074.453125 370.464844 L 1074.453125 333.683594 L 999.636719 333.683594 " fill-opacity="1" fill-rule="evenodd"/><path fill="#ffffff" d="M 960.957031 408.503906 L 999.636719 408.503906 L 999.636719 447.804688 L 960.324219 447.804688 L 960.324219 408.503906 Z M 998.363281 409.769531 L 961.597656 409.769531 L 961.597656 446.546875 L 998.363281 446.546875 L 998.363281 409.769531 " fill-opacity="1" fill-rule="evenodd"/><g clip-path="url(#1618f6cf4f)"><path fill="#ffffff" d="M 1075.089844 446.546875 L 1113.765625 446.546875 L 1113.765625 523.890625 L 1074.453125 523.890625 L 1074.453125 446.546875 Z M 1112.496094 447.804688 L 1075.722656 447.804688 L 1075.722656 522.625 L 1112.496094 522.625 L 1112.496094 447.804688 " fill-opacity="1" fill-rule="evenodd"/></g><path fill="#ffffff" d="M 999.003906 218.296875 L 1037.679688 218.296875 L 1037.679688 257.605469 L 998.363281 257.605469 L 998.363281 218.296875 Z M 1036.410156 219.566406 L 999.636719 219.566406 L 999.636719 256.339844 L 1036.410156 256.339844 L 1036.410156 219.566406 " fill-opacity="1" fill-rule="evenodd"/><path fill="#ffffff" d="M 1037.042969 256.339844 L 1075.722656 256.339844 L 1075.722656 295.644531 L 1036.410156 295.644531 L 1036.410156 256.339844 Z M 1074.453125 257.605469 L 1037.679688 257.605469 L 1037.679688 294.378906 L 1074.453125 294.378906 L 1074.453125 257.605469 " fill-opacity="1" fill-rule="evenodd"/><g clip-path="url(#1a445b12a2)"><path fill="#ffffff" d="M 1075.089844 180.253906 L 1113.765625 180.253906 L 1113.765625 219.566406 L 1074.453125 219.566406 L 1074.453125 180.253906 Z M 1112.496094 181.519531 L 1075.722656 181.519531 L 1075.722656 218.296875 L 1112.496094 218.296875 L 1112.496094 181.519531 " fill-opacity="1" fill-rule="evenodd"/></g><path fill="#ffffff" d="M 846.828125 294.378906 L 885.5 294.378906 L 885.5 333.683594 L 846.195312 333.683594 L 846.195312 294.378906 Z M 884.242188 295.644531 L 847.46875 295.644531 L 847.46875 332.417969 L 884.242188 332.417969 L 884.242188 295.644531 " fill-opacity="1" fill-rule="evenodd"/><path fill="#ffffff" d="M 808.785156 332.417969 L 847.46875 332.417969 L 847.46875 371.726562 L 808.15625 371.726562 L 808.15625 332.417969 Z M 846.195312 333.683594 L 809.421875 333.683594 L 809.421875 370.464844 L 846.195312 370.464844 L 846.195312 333.683594 " fill-opacity="1" fill-rule="evenodd"/><path fill="#ffffff" d="M 551.242188 341.175781 L 572.40625 341.175781 L 572.40625 362.96875 L 550.609375 362.96875 L 550.609375 341.175781 Z M 571.140625 342.441406 L 551.875 342.441406 L 551.875 361.707031 L 571.140625 361.707031 L 571.140625 342.441406 " fill-opacity="1" fill-rule="evenodd"/><path fill="#ffffff" d="M 593.566406 459.578125 L 606.175781 459.578125 L 606.175781 472.816406 L 592.933594 472.816406 L 592.933594 459.578125 Z M 604.90625 460.84375 L 594.203125 460.84375 L 594.203125 471.546875 L 604.90625 471.546875 L 604.90625 460.84375 " fill-opacity="1" fill-rule="evenodd"/><path fill="#ffffff" d="M 630.15625 267.917969 L 645.667969 267.917969 L 645.667969 284.066406 L 629.523438 284.066406 L 629.523438 267.917969 Z M 644.398438 269.183594 L 630.789062 269.183594 L 630.789062 282.800781 L 644.398438 282.800781 L 644.398438 269.183594 " fill-opacity="1" fill-rule="evenodd"/><path fill="#ffffff" d="M 670.121094 345.917969 L 681.792969 345.917969 L 681.792969 358.230469 L 669.484375 358.230469 L 669.484375 345.917969 Z M 680.523438 347.191406 L 670.753906 347.191406 L 670.753906 356.957031 L 680.523438 356.957031 L 680.523438 347.191406 " fill-opacity="1" fill-rule="evenodd"/><path fill="#ffffff" d="M 554.683594 154.40625 L 568.976562 154.40625 L 568.976562 169.328125 L 554.046875 169.328125 L 554.046875 154.40625 Z M 567.707031 155.675781 L 555.316406 155.675781 L 555.316406 168.058594 L 567.707031 168.058594 L 567.707031 155.675781 " fill-opacity="1" fill-rule="evenodd"/><path fill="#ffffff" d="M 667.128906 152.726562 L 684.777344 152.726562 L 684.777344 171.007812 L 666.5 171.007812 L 666.5 152.726562 Z M 683.507812 153.996094 L 667.761719 153.996094 L 667.761719 169.738281 L 683.507812 169.738281 L 683.507812 153.996094 " fill-opacity="1" fill-rule="evenodd"/><path fill="#ffffff" d="M 552.515625 0.0703125 L 571.140625 0.0703125 L 571.140625 19.332031 L 551.878906 19.332031 L 551.878906 0.0703125 Z M 569.867188 1.339844 L 553.148438 1.339844 L 553.148438 18.0625 L 569.867188 18.0625 L 569.867188 1.339844 " fill-opacity="1" fill-rule="evenodd"/><path fill="#ffffff" d="M 746.046875 79.476562 L 758.03125 79.476562 L 758.03125 92.09375 L 745.414062 92.09375 L 745.414062 79.476562 Z M 756.761719 80.742188 L 746.683594 80.742188 L 746.683594 90.828125 L 756.761719 90.828125 L 756.761719 80.742188 " fill-opacity="1" fill-rule="evenodd"/><path fill="#ffffff" d="M 854.238281 225.703125 L 878.101562 225.703125 L 878.101562 250.195312 L 853.609375 250.195312 L 853.609375 225.703125 Z M 876.832031 226.96875 L 854.871094 226.96875 L 854.871094 248.933594 L 876.832031 248.933594 L 876.832031 226.96875 " fill-opacity="1" fill-rule="evenodd"/><path fill="#ffffff" d="M 822.5 193.96875 L 833.75 193.96875 L 833.75 205.847656 L 821.867188 205.847656 L 821.867188 193.96875 Z M 832.484375 195.238281 L 823.136719 195.238281 L 823.136719 204.585938 L 832.484375 204.585938 L 832.484375 195.238281 " fill-opacity="1" fill-rule="evenodd"/><path fill="#ffffff" d="M 936.136719 345.640625 L 948.371094 345.640625 L 948.371094 358.507812 L 935.507812 358.507812 L 935.507812 345.640625 Z M 947.101562 346.910156 L 936.773438 346.910156 L 936.773438 357.238281 L 947.101562 357.238281 L 947.101562 346.910156 " fill-opacity="1" fill-rule="evenodd"/><path fill="#ffffff" d="M 975.652344 194.941406 L 984.941406 194.941406 L 984.941406 204.871094 L 975.019531 204.871094 L 975.019531 194.941406 Z M 983.675781 196.210938 L 976.285156 196.210938 L 976.285156 203.601562 L 983.675781 203.601562 L 983.675781 196.210938 " fill-opacity="1" fill-rule="evenodd"/><path fill="#ffffff" d="M 1047.28125 152.449219 L 1065.484375 152.449219 L 1065.484375 171.289062 L 1046.644531 171.289062 L 1046.644531 152.449219 Z M 1064.222656 153.71875 L 1047.917969 153.71875 L 1047.917969 170.019531 L 1064.222656 170.019531 L 1064.222656 153.71875 " fill-opacity="1" fill-rule="evenodd"/><path fill="#ffffff" d="M 1085.386719 304.671875 L 1103.464844 304.671875 L 1103.464844 323.390625 L 1084.753906 323.390625 L 1084.753906 304.671875 Z M 1102.195312 305.945312 L 1086.019531 305.945312 L 1086.019531 322.121094 L 1102.195312 322.121094 L 1102.195312 305.945312 " fill-opacity="1" fill-rule="evenodd"/><path fill="#ffffff" d="M 1089.019531 232.226562 L 1099.832031 232.226562 L 1099.832031 243.667969 L 1088.386719 243.667969 L 1088.386719 232.226562 Z M 1098.5625 233.496094 L 1089.660156 233.496094 L 1089.660156 242.40625 L 1098.5625 242.40625 L 1098.5625 233.496094 " fill-opacity="1" fill-rule="evenodd"/><path fill="#ffffff" d="M 1088.855469 384.226562 L 1100.003906 384.226562 L 1100.003906 396.003906 L 1088.214844 396.003906 L 1088.214844 384.226562 Z M 1098.730469 385.492188 L 1089.488281 385.492188 L 1089.488281 394.738281 L 1098.730469 394.738281 L 1098.730469 385.492188 " fill-opacity="1" fill-rule="evenodd"/><path fill="#ffffff" d="M 1013.796875 271.128906 L 1022.882812 271.128906 L 1022.882812 280.847656 L 1013.167969 280.847656 L 1013.167969 271.128906 Z M 1021.617188 272.398438 L 1014.425781 272.398438 L 1014.425781 279.582031 L 1021.617188 279.582031 L 1021.617188 272.398438 " fill-opacity="1" fill-rule="evenodd"/><path fill="#ffffff" d="M 1008.539062 456.082031 L 1028.144531 456.082031 L 1028.144531 476.320312 L 1007.898438 476.320312 L 1007.898438 456.082031 Z M 1026.875 457.34375 L 1009.167969 457.34375 L 1009.167969 475.046875 L 1026.875 475.046875 L 1026.875 457.34375 " fill-opacity="1" fill-rule="evenodd"/><g clip-path="url(#b6d068d57e)"><path fill="#ffffff" d="M 1132.347656 104.171875 L 1171.027344 104.171875 L 1171.027344 143.480469 L 1131.71875 143.480469 L 1131.71875 104.171875 Z M 1169.757812 105.4375 L 1132.988281 105.4375 L 1132.988281 142.214844 L 1169.757812 142.214844 L 1169.757812 105.4375 " fill-opacity="1" fill-rule="evenodd"/></g><path fill="#ffffff" d="M 1207.804688 256.96875 L 1207.804688 218.296875 L 1285.160156 218.296875 L 1285.160156 257.605469 L 1207.804688 257.605469 Z M 1209.074219 219.566406 L 1209.074219 256.339844 L 1283.886719 256.339844 L 1283.886719 219.566406 L 1209.074219 219.566406 " fill-opacity="1" fill-rule="evenodd"/><path fill="#ffffff" d="M 1170.398438 142.214844 L 1209.074219 142.214844 L 1209.074219 219.566406 L 1169.757812 219.566406 L 1169.757812 142.214844 Z M 1207.804688 143.480469 L 1171.027344 143.480469 L 1171.027344 218.296875 L 1207.804688 218.296875 L 1207.804688 143.480469 " fill-opacity="1" fill-rule="evenodd"/><path fill="#ffffff" d="M 1170.398438 28.089844 L 1209.074219 28.089844 L 1209.074219 67.398438 L 1169.757812 67.398438 L 1169.757812 28.089844 Z M 1207.804688 29.355469 L 1171.027344 29.355469 L 1171.027344 66.128906 L 1207.804688 66.128906 L 1207.804688 29.355469 " fill-opacity="1" fill-rule="evenodd"/><path fill="#ffffff" d="M 1208.4375 66.128906 L 1247.113281 66.128906 L 1247.113281 143.480469 L 1207.804688 143.480469 L 1207.804688 66.128906 Z M 1245.84375 67.398438 L 1209.074219 67.398438 L 1209.074219 142.214844 L 1245.84375 142.214844 L 1245.84375 67.398438 " fill-opacity="1" fill-rule="evenodd"/><path fill="#ffffff" d="M 1284.527344 104.171875 L 1323.199219 104.171875 L 1323.199219 143.480469 L 1283.886719 143.480469 L 1283.886719 104.171875 Z M 1321.933594 105.4375 L 1285.160156 105.4375 L 1285.160156 142.214844 L 1321.933594 142.214844 L 1321.933594 105.4375 " fill-opacity="1" fill-rule="evenodd"/><path fill="#ffffff" d="M 1284.527344 180.253906 L 1323.199219 180.253906 L 1323.199219 219.566406 L 1283.886719 219.566406 L 1283.886719 180.253906 Z M 1321.933594 181.519531 L 1285.160156 181.519531 L 1285.160156 218.296875 L 1321.933594 218.296875 L 1321.933594 181.519531 " fill-opacity="1" fill-rule="evenodd"/><path fill="#ffffff" d="M 1322.566406 218.296875 L 1361.242188 218.296875 L 1361.242188 257.605469 L 1321.933594 257.605469 L 1321.933594 218.296875 Z M 1359.976562 219.566406 L 1323.199219 219.566406 L 1323.199219 256.339844 L 1359.976562 256.339844 L 1359.976562 219.566406 " fill-opacity="1" fill-rule="evenodd"/><path fill="#ffffff" d="M 1360.609375 142.214844 L 1399.289062 142.214844 L 1399.289062 219.566406 L 1359.976562 219.566406 L 1359.976562 142.214844 Z M 1398.019531 143.480469 L 1361.242188 143.480469 L 1361.242188 218.296875 L 1398.019531 218.296875 L 1398.019531 143.480469 " fill-opacity="1" fill-rule="evenodd"/><g clip-path="url(#e244d11547)"><path fill="#ffffff" d="M 1359.976562 295.015625 L 1359.976562 256.339844 L 1437.332031 256.339844 L 1437.332031 295.644531 L 1359.976562 295.644531 Z M 1361.242188 257.605469 L 1361.242188 294.378906 L 1436.058594 294.378906 L 1436.058594 257.605469 L 1361.242188 257.605469 " fill-opacity="1" fill-rule="evenodd"/></g><g clip-path="url(#886089e29c)"><path fill="#ffffff" d="M 1132.347656 256.339844 L 1171.027344 256.339844 L 1171.027344 295.644531 L 1131.71875 295.644531 L 1131.71875 256.339844 Z M 1169.757812 257.605469 L 1132.988281 257.605469 L 1132.988281 294.378906 L 1169.757812 294.378906 L 1169.757812 257.605469 " fill-opacity="1" fill-rule="evenodd"/></g><path fill="#ffffff" d="M 1170.398438 294.378906 L 1209.074219 294.378906 L 1209.074219 333.683594 L 1169.757812 333.683594 L 1169.757812 294.378906 Z M 1207.804688 295.644531 L 1171.027344 295.644531 L 1171.027344 332.417969 L 1207.804688 332.417969 L 1207.804688 295.644531 " fill-opacity="1" fill-rule="evenodd"/><path fill="#ffffff" d="M 1208.4375 332.417969 L 1247.113281 332.417969 L 1247.113281 409.769531 L 1207.804688 409.769531 L 1207.804688 332.417969 Z M 1245.84375 333.683594 L 1209.074219 333.683594 L 1209.074219 408.503906 L 1245.84375 408.503906 L 1245.84375 333.683594 " fill-opacity="1" fill-rule="evenodd"/><path fill="#ffffff" d="M 1245.84375 333.050781 L 1245.84375 294.378906 L 1323.199219 294.378906 L 1323.199219 333.683594 L 1245.84375 333.683594 Z M 1247.113281 295.644531 L 1247.113281 332.417969 L 1321.933594 332.417969 L 1321.933594 295.644531 L 1247.113281 295.644531 " fill-opacity="1" fill-rule="evenodd"/><path fill="#ffffff" d="M 1322.566406 332.417969 L 1361.242188 332.417969 L 1361.242188 371.726562 L 1321.933594 371.726562 L 1321.933594 332.417969 Z M 1359.976562 333.683594 L 1323.199219 333.683594 L 1323.199219 370.464844 L 1359.976562 370.464844 L 1359.976562 333.683594 " fill-opacity="1" fill-rule="evenodd"/><path fill="#ffffff" d="M 1284.527344 370.464844 L 1323.199219 370.464844 L 1323.199219 447.804688 L 1283.886719 447.804688 L 1283.886719 370.464844 Z M 1321.933594 371.726562 L 1285.160156 371.726562 L 1285.160156 446.546875 L 1321.933594 446.546875 L 1321.933594 371.726562 " fill-opacity="1" fill-rule="evenodd"/><path fill="#ffffff" d="M 1360.609375 408.503906 L 1399.289062 408.503906 L 1399.289062 447.804688 L 1359.976562 447.804688 L 1359.976562 408.503906 Z M 1398.019531 409.769531 L 1361.242188 409.769531 L 1361.242188 446.546875 L 1398.019531 446.546875 L 1398.019531 409.769531 " fill-opacity="1" fill-rule="evenodd"/><path fill="#ffffff" d="M 1170.398438 408.503906 L 1209.074219 408.503906 L 1209.074219 447.804688 L 1169.757812 447.804688 L 1169.757812 408.503906 Z M 1207.804688 409.769531 L 1171.027344 409.769531 L 1171.027344 446.546875 L 1207.804688 446.546875 L 1207.804688 409.769531 " fill-opacity="1" fill-rule="evenodd"/><path fill="#ffffff" d="M 1208.4375 446.546875 L 1247.113281 446.546875 L 1247.113281 485.855469 L 1207.804688 485.855469 L 1207.804688 446.546875 Z M 1245.84375 447.804688 L 1209.074219 447.804688 L 1209.074219 484.582031 L 1245.84375 484.582031 L 1245.84375 447.804688 " fill-opacity="1" fill-rule="evenodd"/><g clip-path="url(#c66dd3339c)"><path fill="#ffffff" d="M 1132.347656 484.582031 L 1171.027344 484.582031 L 1171.027344 523.890625 L 1131.71875 523.890625 L 1131.71875 484.582031 Z M 1169.757812 485.855469 L 1132.988281 485.855469 L 1132.988281 522.625 L 1169.757812 522.625 L 1169.757812 485.855469 " fill-opacity="1" fill-rule="evenodd"/></g><g clip-path="url(#0fe3874519)"><path fill="#ffffff" d="M 1436.695312 294.378906 L 1475.363281 294.378906 L 1475.363281 333.683594 L 1436.058594 333.683594 L 1436.058594 294.378906 Z M 1474.105469 295.644531 L 1437.332031 295.644531 L 1437.332031 332.417969 L 1474.105469 332.417969 L 1474.105469 295.644531 " fill-opacity="1" fill-rule="evenodd"/></g><g clip-path="url(#cc1bd41559)"><path fill="#ffffff" d="M 1398.648438 332.417969 L 1437.332031 332.417969 L 1437.332031 371.726562 L 1398.019531 371.726562 L 1398.019531 332.417969 Z M 1436.058594 333.683594 L 1399.289062 333.683594 L 1399.289062 370.464844 L 1436.058594 370.464844 L 1436.058594 333.683594 " fill-opacity="1" fill-rule="evenodd"/></g><path fill="#ffffff" d="M 1141.105469 341.175781 L 1162.269531 341.175781 L 1162.269531 362.96875 L 1140.476562 362.96875 L 1140.476562 341.175781 Z M 1161.007812 342.441406 L 1141.738281 342.441406 L 1141.738281 361.707031 L 1161.007812 361.707031 L 1161.007812 342.441406 " fill-opacity="1" fill-rule="evenodd"/><path fill="#ffffff" d="M 1183.429688 459.578125 L 1196.039062 459.578125 L 1196.039062 472.816406 L 1182.796875 472.816406 L 1182.796875 459.578125 Z M 1194.769531 460.84375 L 1184.066406 460.84375 L 1184.066406 471.546875 L 1194.769531 471.546875 L 1194.769531 460.84375 " fill-opacity="1" fill-rule="evenodd"/><path fill="#ffffff" d="M 1220.019531 267.917969 L 1235.535156 267.917969 L 1235.535156 284.066406 L 1219.386719 284.066406 L 1219.386719 267.917969 Z M 1234.265625 269.183594 L 1220.65625 269.183594 L 1220.65625 282.800781 L 1234.265625 282.800781 L 1234.265625 269.183594 " fill-opacity="1" fill-rule="evenodd"/><path fill="#ffffff" d="M 1259.988281 345.917969 L 1271.65625 345.917969 L 1271.65625 358.230469 L 1259.347656 358.230469 L 1259.347656 345.917969 Z M 1270.386719 347.191406 L 1260.617188 347.191406 L 1260.617188 356.957031 L 1270.386719 356.957031 L 1270.386719 347.191406 " fill-opacity="1" fill-rule="evenodd"/><path fill="#ffffff" d="M 1144.546875 154.40625 L 1158.839844 154.40625 L 1158.839844 169.328125 L 1143.910156 169.328125 L 1143.910156 154.40625 Z M 1157.570312 155.675781 L 1145.179688 155.675781 L 1145.179688 168.058594 L 1157.570312 168.058594 L 1157.570312 155.675781 " fill-opacity="1" fill-rule="evenodd"/><path fill="#ffffff" d="M 1256.992188 152.726562 L 1274.640625 152.726562 L 1274.640625 171.007812 L 1256.363281 171.007812 L 1256.363281 152.726562 Z M 1273.375 153.996094 L 1257.628906 153.996094 L 1257.628906 169.738281 L 1273.375 169.738281 L 1273.375 153.996094 " fill-opacity="1" fill-rule="evenodd"/><path fill="#ffffff" d="M 1142.378906 0.0703125 L 1161.007812 0.0703125 L 1161.007812 19.332031 L 1141.746094 19.332031 L 1141.746094 0.0703125 Z M 1159.734375 1.339844 L 1143.011719 1.339844 L 1143.011719 18.0625 L 1159.734375 18.0625 L 1159.734375 1.339844 " fill-opacity="1" fill-rule="evenodd"/><path fill="#ffffff" d="M 1335.914062 79.476562 L 1347.894531 79.476562 L 1347.894531 92.09375 L 1335.277344 92.09375 L 1335.277344 79.476562 Z M 1346.628906 80.742188 L 1336.546875 80.742188 L 1336.546875 90.828125 L 1346.628906 90.828125 L 1346.628906 80.742188 " fill-opacity="1" fill-rule="evenodd"/><path fill="#ffffff" d="M 1412.367188 193.96875 L 1423.617188 193.96875 L 1423.617188 205.847656 L 1411.730469 205.847656 L 1411.730469 193.96875 Z M 1422.347656 195.238281 L 1413 195.238281 L 1413 204.585938 L 1422.347656 204.585938 L 1422.347656 195.238281 " fill-opacity="1" fill-rule="evenodd"/></g></g></g></g></svg>