<svg xmlns="http://www.w3.org/2000/svg" xmlns:xlink="http://www.w3.org/1999/xlink" width="1920" zoomAndPan="magnify" viewBox="0 0 1440 525.000007" height="700" preserveAspectRatio="xMidYMid meet" version="1.0"><defs><filter x="0%" y="0%" width="100%" height="100%" id="e676c499a6"><feColorMatrix values="0 0 0 0 1 0 0 0 0 1 0 0 0 0 1 0 0 0 1 0" color-interpolation-filters="sRGB"/></filter><clipPath id="0194b6e5ce"><path d="M 962 0 L 1438.628906 0 L 1438.628906 524 L 962 524 Z M 962 0 " clip-rule="nonzero"/></clipPath><mask id="adaf2d9888"><g filter="url(#e676c499a6)"><rect x="-144" width="1728" fill="#000000" y="-52.500001" height="630.000008" fill-opacity="0.0784"/></g></mask><clipPath id="b89a07c546"><path d="M 1.097656 0 L 476.445312 0 L 476.445312 524 L 1.097656 524 Z M 1.097656 0 " clip-rule="nonzero"/></clipPath><clipPath id="61a884a0d5"><rect x="0" width="477" y="0" height="524"/></clipPath></defs><g clip-path="url(#0194b6e5ce)"><g mask="url(#adaf2d9888)"><g transform="matrix(1, 0, 0, 1, 962, 0.000000000000109615)"><g clip-path="url(#61a884a0d5)"><g clip-path="url(#b89a07c546)"><path fill="#d8d5ed" d="M 246.632812 292.199219 L 246.632812 299.5625 L 239.273438 299.5625 L 239.273438 292.199219 Z M 428.339844 462.710938 C 429.746094 463.230469 430.757812 464.570312 430.757812 466.152344 C 430.757812 468.183594 429.105469 469.835938 427.078125 469.835938 C 425.050781 469.835938 423.398438 468.183594 423.398438 466.152344 C 423.398438 464.570312 424.410156 463.226562 425.816406 462.710938 L 425.816406 462.789062 L 428.339844 462.789062 Z M 471.042969 375.015625 L 467.523438 381.117188 L 464 375.015625 Z M 335.292969 406.796875 C 335.292969 408.828125 333.640625 410.476562 331.613281 410.476562 C 329.585938 410.476562 327.933594 408.828125 327.933594 406.796875 C 327.933594 404.769531 329.585938 403.117188 331.613281 403.117188 C 333.640625 403.117188 335.292969 404.769531 335.292969 406.796875 Z M 378.796875 514.0625 L 378.796875 521.421875 L 371.441406 521.421875 L 371.441406 514.0625 Z M 289.613281 406.121094 L 286.089844 412.222656 L 282.570312 406.121094 Z M 178.394531 111.550781 L 178.394531 118.910156 L 171.035156 118.910156 L 171.035156 111.550781 Z M 148.59375 196.097656 C 148.59375 198.125 146.941406 199.777344 144.914062 199.777344 C 142.882812 199.777344 141.234375 198.125 141.234375 196.097656 C 141.234375 194.066406 142.882812 192.417969 144.914062 192.417969 C 146.941406 192.417969 148.59375 194.066406 148.59375 196.097656 Z M 204.859375 228.945312 L 201.335938 235.046875 L 197.816406 228.945312 Z M 456.652344 5.019531 L 464.007812 5.019531 L 464.007812 12.378906 L 456.652344 12.378906 Z M 470.207031 115.257812 C 472.234375 115.257812 473.886719 116.910156 473.886719 118.9375 C 473.886719 120.96875 472.234375 122.617188 470.207031 122.617188 C 468.179688 122.617188 466.53125 120.96875 466.53125 118.9375 C 466.53125 116.910156 468.179688 115.257812 470.207031 115.257812 Z M 296.339844 97.976562 C 300.898438 97.976562 304.605469 101.6875 304.605469 106.246094 C 304.605469 113.941406 310.863281 120.199219 318.554688 120.199219 L 464.140625 120.199219 C 464.722656 123.015625 467.222656 125.140625 470.207031 125.140625 C 473.625 125.140625 476.40625 122.355469 476.40625 118.9375 C 476.40625 115.519531 473.625 112.734375 470.207031 112.734375 C 467.222656 112.734375 464.722656 114.859375 464.140625 117.679688 L 318.554688 117.679688 C 312.253906 117.679688 307.125 112.550781 307.125 106.246094 C 307.125 102.929688 305.617188 99.957031 303.257812 97.976562 L 305.867188 97.976562 C 321.648438 97.976562 334.488281 85.132812 334.488281 69.34375 L 334.488281 36.070312 C 334.488281 21.675781 346.199219 9.960938 360.589844 9.960938 L 454.132812 9.960938 L 454.132812 13.640625 C 454.132812 14.335938 454.695312 14.902344 455.390625 14.902344 L 465.269531 14.902344 C 465.964844 14.902344 466.53125 14.335938 466.53125 13.640625 L 466.53125 3.757812 C 466.53125 3.0625 465.964844 2.496094 465.269531 2.496094 L 455.390625 2.496094 C 454.695312 2.496094 454.132812 3.0625 454.132812 3.757812 L 454.132812 7.4375 L 360.589844 7.4375 C 344.808594 7.4375 331.964844 20.285156 331.964844 36.070312 L 331.964844 69.34375 C 331.964844 83.742188 320.257812 95.457031 305.867188 95.457031 L 243.472656 95.457031 C 239.433594 72.070312 219.023438 54.21875 194.511719 54.21875 L 123.171875 54.21875 C 97.15625 54.21875 75.992188 33.046875 75.992188 7.023438 L 75.992188 0.0585938 L 73.472656 0.0585938 L 73.472656 86.460938 C 73.472656 96.410156 65.382812 104.503906 55.4375 104.503906 L 5.796875 104.503906 L 5.796875 107.027344 L 55.4375 107.027344 C 63.203125 107.027344 69.980469 102.691406 73.472656 96.3125 L 73.472656 144.5625 C 73.472656 152.914062 66.683594 159.707031 58.335938 159.707031 L 1.085938 159.707031 L 1.085938 162.230469 L 58.335938 162.230469 C 68.074219 162.230469 75.992188 154.304688 75.992188 144.5625 L 75.992188 121.882812 C 78.851562 126.371094 83.855469 129.363281 89.554688 129.363281 L 133.46875 129.363281 C 139.085938 129.363281 143.652344 133.929688 143.652344 139.546875 L 143.652344 168.324219 C 143.652344 173.835938 139.171875 178.316406 133.664062 178.316406 L 103.960938 178.316406 C 94.734375 178.316406 87.226562 185.828125 87.226562 195.054688 L 87.226562 227.683594 L 89.75 227.683594 L 89.75 195.054688 C 89.75 187.214844 96.121094 180.835938 103.960938 180.835938 L 133.664062 180.835938 C 137.75 180.835938 141.371094 178.863281 143.652344 175.824219 L 143.652344 190.027344 C 140.835938 190.609375 138.710938 193.109375 138.710938 196.097656 C 138.710938 199.515625 141.496094 202.296875 144.914062 202.296875 C 148.332031 202.296875 151.113281 199.515625 151.113281 196.097656 C 151.113281 193.109375 148.988281 190.609375 146.175781 190.027344 L 146.171875 175.824219 C 148.457031 178.863281 152.078125 180.835938 156.160156 180.835938 L 185.867188 180.835938 C 193.703125 180.835938 200.078125 187.214844 200.078125 195.054688 L 200.078125 226.421875 L 195.636719 226.421875 C 195.183594 226.421875 194.769531 226.664062 194.546875 227.050781 C 194.429688 227.25 194.375 227.464844 194.375 227.683594 C 194.375 227.902344 194.429688 228.117188 194.546875 228.316406 L 200.25 238.195312 C 200.695312 238.976562 201.980469 238.976562 202.425781 238.195312 L 208.128906 228.316406 C 208.246094 228.117188 208.300781 227.902344 208.300781 227.683594 C 208.300781 227.464844 208.246094 227.25 208.128906 227.050781 C 207.90625 226.664062 207.492188 226.421875 207.042969 226.421875 L 202.597656 226.421875 L 202.597656 195.054688 C 202.597656 185.828125 195.09375 178.316406 185.867188 178.316406 L 156.160156 178.316406 C 150.652344 178.316406 146.175781 173.835938 146.175781 168.324219 L 146.175781 139.546875 C 146.175781 132.542969 140.476562 126.839844 133.46875 126.839844 L 89.554688 126.839844 C 82.078125 126.839844 75.992188 120.753906 75.992188 113.273438 L 75.992188 22.625 C 82.550781 42.417969 101.214844 56.742188 123.171875 56.742188 L 152.28125 56.742188 C 163.957031 56.742188 173.453125 66.242188 173.453125 77.921875 L 173.453125 109.027344 L 169.773438 109.027344 C 169.078125 109.027344 168.515625 109.59375 168.515625 110.289062 L 168.515625 120.171875 C 168.515625 120.867188 169.078125 121.429688 169.773438 121.429688 L 179.652344 121.429688 C 180.347656 121.429688 180.914062 120.867188 180.914062 120.171875 L 180.914062 110.289062 C 180.914062 109.59375 180.347656 109.027344 179.652344 109.027344 L 175.976562 109.027344 L 175.976562 77.921875 C 175.976562 68.660156 170.621094 60.636719 162.855469 56.742188 L 194.511719 56.742188 C 220.527344 56.742188 241.691406 77.917969 241.691406 103.941406 L 241.691406 289.679688 L 238.011719 289.679688 C 237.316406 289.679688 236.753906 290.242188 236.753906 290.941406 L 236.753906 300.820312 C 236.753906 301.519531 237.316406 302.082031 238.011719 302.082031 L 247.890625 302.082031 C 248.585938 302.082031 249.152344 301.519531 249.152344 300.820312 L 249.152344 290.941406 C 249.152344 290.242188 248.585938 289.679688 247.890625 289.679688 L 244.210938 289.679688 L 244.210938 195.34375 C 246.742188 198.960938 250.929688 201.339844 255.667969 201.339844 L 273.179688 201.339844 C 279.605469 201.339844 284.832031 206.566406 284.832031 212.992188 L 284.832031 403.597656 L 280.386719 403.597656 C 279.9375 403.597656 279.519531 403.839844 279.296875 404.226562 C 279.183594 404.425781 279.128906 404.640625 279.128906 404.859375 C 279.128906 405.078125 279.183594 405.292969 279.296875 405.492188 L 285 415.371094 C 285.445312 416.152344 286.734375 416.152344 287.179688 415.371094 L 292.886719 405.492188 C 292.996094 405.292969 293.054688 405.078125 293.054688 404.859375 C 293.054688 404.640625 292.996094 404.425781 292.886719 404.226562 C 292.660156 403.839844 292.246094 403.597656 291.792969 403.597656 L 287.351562 403.597656 L 287.351562 212.992188 C 287.351562 205.175781 280.996094 198.816406 273.179688 198.816406 L 255.667969 198.816406 C 249.351562 198.816406 244.210938 193.675781 244.210938 187.355469 L 244.210938 130.832031 C 250.769531 150.625 269.433594 164.949219 291.390625 164.949219 L 309.960938 164.949219 C 321.207031 164.949219 330.355469 174.101562 330.355469 185.351562 L 330.355469 400.726562 C 327.539062 401.3125 325.414062 403.808594 325.414062 406.796875 C 325.414062 410.214844 328.195312 413 331.613281 413 C 335.03125 413 337.8125 410.214844 337.8125 406.796875 C 337.8125 403.808594 335.691406 401.3125 332.875 400.726562 L 332.875 309.121094 C 335.5625 313.136719 340.132812 315.789062 345.3125 315.789062 L 361.417969 315.789062 C 368.277344 315.789062 373.859375 321.371094 373.859375 328.230469 L 373.859375 511.539062 L 370.179688 511.539062 C 369.484375 511.539062 368.921875 512.105469 368.921875 512.800781 L 368.921875 522.683594 C 368.921875 523.378906 369.484375 523.945312 370.179688 523.945312 L 380.058594 523.945312 C 380.753906 523.945312 381.320312 523.378906 381.320312 522.683594 L 381.320312 512.800781 C 381.320312 512.105469 380.753906 511.539062 380.058594 511.539062 L 376.378906 511.539062 L 376.378906 328.230469 C 376.378906 319.980469 369.667969 313.265625 361.417969 313.265625 L 345.3125 313.265625 C 338.453125 313.265625 332.875 307.683594 332.875 300.820312 L 332.875 185.351562 C 332.875 176.457031 327.773438 168.75 320.359375 164.949219 L 378.636719 164.949219 C 404.652344 164.949219 425.816406 186.125 425.816406 212.148438 L 425.816406 460.082031 C 423 460.667969 420.878906 463.167969 420.878906 466.152344 C 420.878906 469.574219 423.660156 472.355469 427.078125 472.355469 C 430.496094 472.355469 433.277344 469.574219 433.277344 466.152344 C 433.277344 463.167969 431.152344 460.667969 428.339844 460.082031 L 428.339844 274.140625 C 431.167969 278.550781 436.097656 281.484375 441.710938 281.484375 C 455.25 281.484375 466.265625 292.5 466.265625 306.042969 L 466.265625 372.492188 L 461.820312 372.492188 C 461.367188 372.492188 460.953125 372.734375 460.730469 373.125 C 460.617188 373.320312 460.558594 373.535156 460.558594 373.753906 C 460.558594 373.972656 460.617188 374.191406 460.730469 374.386719 L 466.433594 384.265625 C 466.878906 385.042969 468.167969 385.042969 468.613281 384.265625 L 474.3125 374.386719 C 474.429688 374.191406 474.484375 373.972656 474.484375 373.753906 C 474.484375 373.535156 474.429688 373.320312 474.3125 373.125 C 474.089844 372.734375 473.671875 372.492188 473.226562 372.492188 L 468.78125 372.492188 L 468.78125 306.042969 C 468.78125 291.113281 456.636719 278.960938 441.707031 278.960938 C 434.335938 278.960938 428.339844 272.960938 428.339844 265.585938 L 428.339844 212.148438 C 428.339844 184.734375 406.042969 162.429688 378.636719 162.429688 L 291.390625 162.429688 C 265.378906 162.429688 244.210938 141.253906 244.210938 115.230469 L 244.210938 103.941406 C 244.210938 101.921875 244.078125 99.933594 243.839844 97.976562 L 296.339844 97.976562 " fill-opacity="1" fill-rule="nonzero"/></g></g></g></g></g></svg>