<?xml version="1.0" encoding="UTF-8"?>
<!DOCTYPE svg PUBLIC "-//W3C//DTD SVG 1.1//EN" "http://www.w3.org/Graphics/SVG/1.1/DTD/svg11.dtd">
<!-- Creator: CorelDRAW -->
<svg xmlns="http://www.w3.org/2000/svg" xml:space="preserve" width="41.91mm" height="16.6792mm" style="shape-rendering:geometricPrecision; text-rendering:geometricPrecision; image-rendering:optimizeQuality; fill-rule:evenodd; clip-rule:evenodd"
viewBox="0 0 41.91 16.6792"
 xmlns:xlink="http://www.w3.org/1999/xlink">
 <defs>
  <style type="text/css">
   <![CDATA[
    .str0 {stroke:white;stroke-width:0.2;stroke-linecap:round;stroke-linejoin:round;stroke-dasharray:0.200000 0.600000}
    .fil0 {fill:yellow}
    .fil3 {fill:white}
    .fil2 {fill:#4D4D4D;fill-rule:nonzero}
    .fil1 {fill:white;fill-rule:nonzero}
   ]]>
  </style>
 </defs>
 <g id="Camada_x0020_1">
  <metadata id="CorelCorpID_0Corel-Layer"/>
  <path class="fil0 str0" d="M17.2052 8.2035l1.8404 0.3234c1.0875,0.1911 1.8208,1.2372 1.6297,2.3247l-0.243 1.3825c-0.1911,1.0875 -1.2371,1.8208 -2.3247,1.6297l-1.8404 -0.3234c-1.0875,-0.1911 -1.8208,-1.2372 -1.6297,-2.3247l0.243 -1.3825c0.1911,-1.0875 1.2371,-1.8208 2.3247,-1.6297z"/>
  <path class="fil1" d="M1.9713 4.2506l-1.6073 -0.1693c0.0607,-0.2808 0.1482,-0.5024 0.2625,-0.6632 0.1143,-0.1609 0.278,-0.3006 0.4939,-0.4191 0.1538,-0.0861 0.3669,-0.1525 0.6364,-0.199 0.2695,-0.0466 0.5616,-0.0706 0.8763,-0.0706 0.5038,0 0.9102,0.0282 1.215,0.0847 0.3062,0.0564 0.5616,0.175 0.7648,0.3542 0.1439,0.1242 0.2568,0.2991 0.3401,0.5263 0.0818,0.2286 0.1227,0.4445 0.1227,0.652l0 1.9388c0,0.2061 0.0142,0.3683 0.0396,0.4855 0.0268,0.1171 0.0832,0.2667 0.1721,0.4487l-1.579 0c-0.0635,-0.1129 -0.1045,-0.199 -0.1242,-0.2582 -0.0198,-0.0593 -0.0381,-0.1524 -0.0579,-0.2794 -0.2201,0.213 -0.4402,0.364 -0.6575,0.4543 -0.2978,0.1214 -0.6435,0.1821 -1.0372,0.1821 -0.5235,0 -0.9215,-0.1214 -1.1938,-0.3641 -0.271,-0.2413 -0.4064,-0.5404 -0.4064,-0.896 0,-0.3345 0.0973,-0.6082 0.2935,-0.8227 0.1961,-0.2159 0.556,-0.3754 1.0823,-0.4798 0.6322,-0.127 1.0414,-0.2159 1.2291,-0.2667 0.1863,-0.0508 0.3852,-0.1185 0.5941,-0.2004 0,-0.2074 -0.0424,-0.3514 -0.127,-0.4346 -0.0861,-0.0819 -0.2357,-0.1242 -0.4516,-0.1242 -0.2751,0 -0.4812,0.0452 -0.6195,0.1327 -0.1072,0.0691 -0.1947,0.1989 -0.261,0.388zm1.4591 0.8848c-0.2314,0.0832 -0.4727,0.1566 -0.7225,0.2201 -0.3415,0.0903 -0.5588,0.1806 -0.6491,0.2681 -0.0946,0.0917 -0.1411,0.1948 -0.1411,0.3105 0,0.1326 0.0465,0.2399 0.1383,0.3245 0.0931,0.0833 0.2286,0.1256 0.4078,0.1256 0.1876,0 0.3612,-0.0451 0.5235,-0.1354 0.1609,-0.0918 0.2752,-0.2032 0.3429,-0.3331 0.0677,-0.1312 0.1002,-0.302 0.1002,-0.5108l0 -0.2695zm2.7461 3.755l0 -6.0608 1.5748 0 0 0.6491c0.2187,-0.2737 0.4177,-0.4586 0.5997,-0.5545 0.2455,-0.1299 0.5165,-0.1948 0.8142,-0.1948 0.587,0 1.0414,0.2258 1.3632,0.6745 0.3203,0.4488 0.4811,1.0048 0.4811,1.6666 0,0.7295 -0.1749,1.2869 -0.5249,1.6721 -0.3499,0.3839 -0.793,0.5758 -1.3264,0.5758 -0.2597,0 -0.4968,-0.0438 -0.7098,-0.1313 -0.2131,-0.0889 -0.405,-0.2201 -0.5729,-0.3937l0 2.097 -1.699 0zm1.6877 -3.8538c0,0.3471 0.0719,0.6054 0.2187,0.7733 0.1453,0.1679 0.3302,0.2526 0.5531,0.2526 0.1962,0 0.3599,-0.0804 0.4925,-0.2427 0.1327,-0.1609 0.199,-0.4347 0.199,-0.8199 0,-0.3556 -0.0692,-0.6166 -0.2074,-0.7832 -0.1369,-0.1679 -0.3063,-0.2511 -0.5038,-0.2511 -0.2159,0 -0.3951,0.0846 -0.5376,0.2526 -0.144,0.1679 -0.2145,0.4416 -0.2145,0.8184zm3.968 -2.207l1.5748 0 0 0.7183c0.1524,-0.3105 0.3091,-0.525 0.4699,-0.6421 0.1609,-0.1171 0.3599,-0.1764 0.5969,-0.1764 0.2484,0 0.5193,0.0776 0.8143,0.2314l-0.5207 1.1995c-0.1976,-0.0833 -0.3556,-0.1242 -0.4714,-0.1242 -0.2201,0 -0.3908,0.0917 -0.5122,0.2724 -0.1736,0.2568 -0.261,0.7366 -0.261,1.4393l0 1.4718 -1.6906 0 0 -4.39zm8.7518 2.612l-3.3726 0c0.0297,0.2709 0.103,0.4713 0.2188,0.604 0.1622,0.1905 0.3753,0.285 0.6364,0.285 0.1651,0 0.3231,-0.0409 0.4713,-0.1242 0.0917,-0.0522 0.1891,-0.1439 0.2935,-0.2766l1.6581 0.1524c-0.254,0.4417 -0.5588,0.7578 -0.9173,0.9497 -0.3584,0.1905 -0.872,0.2865 -1.5423,0.2865 -0.5814,0 -1.0386,-0.0819 -1.373,-0.2456 -0.3331,-0.1636 -0.6096,-0.4247 -0.8284,-0.7817 -0.2187,-0.357 -0.3288,-0.7761 -0.3288,-1.2587 0,-0.6858 0.2202,-1.2418 0.659,-1.6651 0.4403,-0.4248 1.0471,-0.6379 1.8218,-0.6379 0.6279,0 1.1246,0.096 1.4873,0.2865 0.3641,0.1891 0.6421,0.4657 0.8312,0.8255 0.1905,0.3612 0.285,0.8311 0.285,1.4097l0 0.1905zm-1.7103 -0.8058c-0.0338,-0.3259 -0.1213,-0.5588 -0.2624,-0.6985 -0.1426,-0.1411 -0.3288,-0.2116 -0.5603,-0.2116 -0.2681,0 -0.4811,0.1072 -0.642,0.3189 -0.1016,0.1326 -0.1665,0.3288 -0.1933,0.5912l1.658 0zm2.4836 -1.8062l1.5678 0 0 0.714c0.2342,-0.2921 0.4713,-0.4995 0.7112,-0.6251 0.2398,-0.1256 0.5319,-0.1891 0.8763,-0.1891 0.4656,0 0.8297,0.1397 1.0936,0.4163 0.2624,0.2766 0.3937,0.7042 0.3937,1.2827l0 2.7912 -1.6905 0 0 -2.4144c0,-0.2752 -0.0508,-0.4699 -0.1524,-0.5842 -0.1031,-0.1157 -0.2456,-0.1722 -0.4304,-0.1722 -0.2032,0 -0.3697,0.0776 -0.4953,0.2314 -0.127,0.1539 -0.1905,0.4318 -0.1905,0.8312l0 2.1082 -1.6835 0 0 -4.39zm10.2701 -1.6707l0 6.0607 -1.5748 0 0 -0.6491c-0.2215,0.2752 -0.4219,0.4614 -0.6039,0.5588 -0.2428,0.1256 -0.5123,0.1891 -0.81,0.1891 -0.5983,0 -1.0555,-0.2272 -1.3716,-0.6816 -0.3147,-0.4544 -0.4728,-1.0075 -0.4728,-1.6581 0,-0.7281 0.1736,-1.2841 0.5236,-1.6693 0.3485,-0.3867 0.7916,-0.58 1.3278,-0.58 0.2625,0 0.4996,0.0452 0.7141,0.1327 0.213,0.0889 0.4021,0.2201 0.5686,0.3965l0 -2.0997 1.699 0zm-1.6877 3.8537c0,-0.3457 -0.0719,-0.6025 -0.2187,-0.7719 -0.1453,-0.1693 -0.3302,-0.254 -0.5532,-0.254 -0.1961,0 -0.3598,0.0819 -0.4924,0.2442 -0.1327,0.1622 -0.199,0.4346 -0.199,0.8184 0,0.3584 0.0691,0.6209 0.2046,0.7874 0.1369,0.1665 0.3062,0.2498 0.5066,0.2498 0.2159,0 0.3951,-0.0833 0.5376,-0.2512 0.144,-0.1693 0.2145,-0.4431 0.2145,-0.8227zm7.5862 0.429l-3.3726 0c0.0297,0.2709 0.103,0.4713 0.2188,0.604 0.1622,0.1905 0.3753,0.285 0.6364,0.285 0.1651,0 0.3231,-0.0409 0.4713,-0.1242 0.0917,-0.0522 0.1891,-0.1439 0.2935,-0.2766l1.6581 0.1524c-0.254,0.4417 -0.5588,0.7578 -0.9173,0.9497 -0.3584,0.1905 -0.872,0.2865 -1.5423,0.2865 -0.5814,0 -1.0386,-0.0819 -1.373,-0.2456 -0.3331,-0.1636 -0.6096,-0.4247 -0.8284,-0.7817 -0.2187,-0.357 -0.3288,-0.7761 -0.3288,-1.2587 0,-0.6858 0.2202,-1.2418 0.659,-1.6651 0.4403,-0.4248 1.0471,-0.6379 1.8218,-0.6379 0.6279,0 1.1246,0.096 1.4873,0.2865 0.3641,0.1891 0.6421,0.4657 0.8312,0.8255 0.1905,0.3612 0.285,0.8311 0.285,1.4097l0 0.1905zm-1.7103 -0.8058c-0.0338,-0.3259 -0.1213,-0.5588 -0.2624,-0.6985 -0.1426,-0.1411 -0.3288,-0.2116 -0.5603,-0.2116 -0.2681,0 -0.4811,0.1072 -0.642,0.3189 -0.1016,0.1326 -0.1665,0.3288 -0.1933,0.5912l1.658 0zm2.5005 -1.8062l1.5748 0 0 0.7183c0.1524,-0.3105 0.3091,-0.525 0.4699,-0.6421 0.1609,-0.1171 0.3599,-0.1764 0.5969,-0.1764 0.2484,0 0.5193,0.0776 0.8143,0.2314l-0.5207 1.1995c-0.1976,-0.0833 -0.3556,-0.1242 -0.4714,-0.1242 -0.2201,0 -0.3908,0.0917 -0.5122,0.2724 -0.1736,0.2568 -0.261,0.7366 -0.261,1.4393l0 1.4718 -1.6906 0 0 -4.39z"/>
  <path class="fil1" d="M22.1236 8.8157l4.0711 0 0 0.9836 -2.2155 2.2578 2.3524 0 0 1.1486 -4.3745 0 0 -1.0908 2.1012 -2.1505 -1.9347 0 0 -1.1487zm9.6887 2.612l-3.3726 0c0.0297,0.2709 0.103,0.4713 0.2188,0.604 0.1622,0.1905 0.3753,0.285 0.6364,0.285 0.1651,0 0.3231,-0.0409 0.4713,-0.1242 0.0917,-0.0522 0.1891,-0.1439 0.2935,-0.2766l1.6581 0.1524c-0.254,0.4417 -0.5588,0.7578 -0.9173,0.9497 -0.3584,0.1905 -0.872,0.2865 -1.5423,0.2865 -0.5814,0 -1.0386,-0.0819 -1.373,-0.2456 -0.3331,-0.1636 -0.6096,-0.4247 -0.8284,-0.7817 -0.2187,-0.357 -0.3288,-0.7761 -0.3288,-1.2587 0,-0.6858 0.2202,-1.2418 0.659,-1.6651 0.4403,-0.4248 1.0471,-0.6379 1.8218,-0.6379 0.6279,0 1.1246,0.096 1.4873,0.2865 0.3641,0.1891 0.6421,0.4657 0.8312,0.8255 0.1905,0.3612 0.285,0.8311 0.285,1.4097l0 0.1905zm-1.7103 -0.8058c-0.0338,-0.3259 -0.1213,-0.5588 -0.2624,-0.6985 -0.1426,-0.1411 -0.3288,-0.2116 -0.5603,-0.2116 -0.2681,0 -0.4811,0.1072 -0.642,0.3189 -0.1016,0.1326 -0.1665,0.3288 -0.1933,0.5912l1.658 0zm2.5005 -1.8062l1.5748 0 0 0.7183c0.1524,-0.3105 0.3091,-0.525 0.4699,-0.6421 0.1609,-0.1171 0.3599,-0.1764 0.5969,-0.1764 0.2484,0 0.5193,0.0776 0.8143,0.2314l-0.5207 1.1995c-0.1976,-0.0833 -0.3556,-0.1242 -0.4714,-0.1242 -0.2201,0 -0.3908,0.0917 -0.5122,0.2724 -0.1736,0.2568 -0.261,0.7366 -0.261,1.4393l0 1.4718 -1.6906 0 0 -4.39zm3.6718 2.207c0,-0.6689 0.2258,-1.222 0.6773,-1.6552 0.453,-0.4347 1.0626,-0.652 1.8316,-0.652 0.8792,0 1.5438,0.2554 1.9925,0.7649 0.3613,0.4106 0.5419,0.9172 0.5419,1.5183 0,0.6745 -0.2244,1.2277 -0.6717,1.6595 -0.4473,0.4304 -1.0668,0.6463 -1.8584,0.6463 -0.7056,0 -1.2757,-0.1792 -1.7117,-0.5377 -0.5348,-0.443 -0.8015,-1.0244 -0.8015,-1.7441zm1.6863 -0.0042c0,0.3923 0.079,0.6815 0.2384,0.8678 0.1581,0.1877 0.3571,0.2822 0.5969,0.2822 0.2428,0 0.4417,-0.0931 0.5969,-0.278 0.1567,-0.1848 0.2343,-0.4797 0.2343,-0.889 0,-0.3796 -0.079,-0.6632 -0.2357,-0.8495 -0.1566,-0.1848 -0.3513,-0.2779 -0.5828,-0.2779 -0.2455,0 -0.4487,0.0945 -0.6081,0.2822 -0.1595,0.1891 -0.2399,0.4769 -0.2399,0.8622z"/>
  <path class="fil2" d="M16.9688 12.3266l0 -0.2773c-0.139,0.218 -0.3436,0.3267 -0.6138,0.3267 -0.175,0 -0.3359,-0.048 -0.4826,-0.1446 -0.1468,-0.096 -0.2604,-0.2308 -0.3415,-0.4043 -0.0804,-0.1729 -0.1207,-0.3711 -0.1207,-0.5962 0,-0.2187 0.0367,-0.4177 0.1094,-0.5962 0.0734,-0.1785 0.1827,-0.3154 0.3288,-0.4099 0.146,-0.0953 0.3097,-0.1433 0.4903,-0.1433 0.132,0 0.2498,0.0283 0.3528,0.084 0.1037,0.0557 0.1877,0.1284 0.2526,0.218l0 -1.0872 0.3697 0 0 3.0303 -0.345 0zm-1.1762 -1.0957c0,0.2815 0.0593,0.4917 0.1778,0.6307 0.1186,0.139 0.2583,0.2089 0.4198,0.2089 0.1623,0 0.3006,-0.067 0.4142,-0.1997 0.1136,-0.1326 0.1707,-0.3358 0.1707,-0.6089 0,-0.3005 -0.0578,-0.5207 -0.1735,-0.6611 -0.1157,-0.1411 -0.2582,-0.2109 -0.4283,-0.2109 -0.1651,0 -0.3034,0.0677 -0.4141,0.2025 -0.1108,0.1347 -0.1666,0.3478 -0.1666,0.6385zm1.9678 -0.0021c0,-0.4064 0.1129,-0.7077 0.3394,-0.9031 0.1884,-0.1623 0.4184,-0.2442 0.69,-0.2442 0.302,0 0.5489,0.0988 0.7401,0.2971 0.1919,0.1975 0.2872,0.4706 0.2872,0.8191 0,0.2829 -0.0424,0.5052 -0.127,0.6668 -0.0847,0.1622 -0.2082,0.2878 -0.3697,0.3774 -0.1623,0.0896 -0.3387,0.1341 -0.5306,0.1341 -0.3069,0 -0.5553,-0.0981 -0.7451,-0.2956 -0.1898,-0.1969 -0.2843,-0.4805 -0.2843,-0.8516zm0.3824 0c0,0.2815 0.0614,0.4917 0.1842,0.6314 0.1227,0.1404 0.2772,0.2103 0.4628,0.2103 0.1849,0 0.3387,-0.0706 0.4614,-0.211 0.1221,-0.1404 0.1835,-0.3549 0.1835,-0.6427 0,-0.2717 -0.0614,-0.4777 -0.1849,-0.6174 -0.1235,-0.1397 -0.2766,-0.2095 -0.46,-0.2095 -0.1856,0 -0.3401,0.0698 -0.4628,0.2088 -0.1228,0.139 -0.1842,0.3493 -0.1842,0.6301z"/>
  <path id="cursor.eps" class="fil3" d="M19.594 15.8691l-0.2868 -2.8235 2.3652 1.5686 -0.9222 0.318 0.4194 0.6946c0.0743,0.123 0.0348,0.2829 -0.0882,0.3571 -0.123,0.0743 -0.2829,0.0348 -0.3572,-0.0882l-0.4193 -0.6946 -0.7109 0.668z"/>
  <rect class="fil3" transform="matrix(0.989943 0.141468 -0.141468 0.989943 17.8386 7.98211)" width="0.6773" height="0.6774"/>
  <rect class="fil3" transform="matrix(0.989943 0.141468 -0.141468 0.989943 16.906 13.3309)" width="0.6773" height="0.6774"/>
  <rect class="fil3" transform="matrix(0.989943 0.141468 -0.141468 0.989943 14.4825 10.1427)" width="0.6773" height="0.6774"/>
  <rect class="fil3" transform="matrix(0.989943 0.141468 -0.141468 0.989943 20.2776 11.0329)" width="0.6773" height="0.6774"/>
 </g>
</svg>
